<?xml version="1.0" encoding="UTF-8" standalone="no"?>
<!-- Created with Inkscape (http://www.inkscape.org/) -->

<svg
   xmlns:dc="http://purl.org/dc/elements/1.1/"
   xmlns:cc="http://creativecommons.org/ns#"
   xmlns:rdf="http://www.w3.org/1999/02/22-rdf-syntax-ns#"
   xmlns:svg="http://www.w3.org/2000/svg"
   xmlns="http://www.w3.org/2000/svg"
   xmlns:sodipodi="http://sodipodi.sourceforge.net/DTD/sodipodi-0.dtd"
   xmlns:inkscape="http://www.inkscape.org/namespaces/inkscape"
   width="1500"
   height="300"
   viewBox="0 0 1500 300.00001"
   id="svg4206"
   version="1.1"
   inkscape:version="0.91 r13725"
   sodipodi:docname="banner-bar.svg"
   inkscape:export-filename="/Users/idm/Work/www-gthnk/assets/css/images/banner.png"
   inkscape:export-xdpi="150"
   inkscape:export-ydpi="150">
  <defs
     id="defs4208" />
  <sodipodi:namedview
     id="base"
     pagecolor="#ffffff"
     bordercolor="#666666"
     borderopacity="1.0"
     inkscape:pageopacity="0.0"
     inkscape:pageshadow="2"
     inkscape:zoom="1.4"
     inkscape:cx="352.20968"
     inkscape:cy="184.82268"
     inkscape:document-units="px"
     inkscape:current-layer="layer1"
     showgrid="true"
     units="px"
     inkscape:window-width="1920"
     inkscape:window-height="1058"
     inkscape:window-x="0"
     inkscape:window-y="0"
     inkscape:window-maximized="1">
    <inkscape:grid
       type="xygrid"
       id="grid4869" />
  </sodipodi:namedview>
  <metadata
     id="metadata4211">
    <rdf:RDF>
      <cc:Work
         rdf:about="">
        <dc:format>image/svg+xml</dc:format>
        <dc:type
           rdf:resource="http://purl.org/dc/dcmitype/StillImage" />
        <dc:title></dc:title>
      </cc:Work>
    </rdf:RDF>
  </metadata>
  <g
     inkscape:label="Layer 1"
     inkscape:groupmode="layer"
     id="layer1"
     transform="translate(0,-752.36208)">
    <path
       style="fill:#ffffff;fill-opacity:0.06686928"
       d="m 168.77482,1046.5129 c -0.65123,-0.6522 -3.7724,-1.2983 -6.93591,-1.4359 -15.02954,-0.6534 -21.18602,-1.4939 -21.18602,-2.8925 0,-0.8386 -1.42994,-0.8788 -3.17764,-0.09 -1.74769,0.7894 -6.44604,1.1984 -10.44078,0.9086 -3.99476,-0.2899 -13.49501,-0.456 -21.11168,-0.3694 -9.815363,0.1111 -14.611432,-0.6054 -16.468127,-2.4621 -1.979676,-1.9798 -3.475958,-2.1461 -6.125182,-0.6805 -3.225047,1.7838 -3.288835,1.6744 -0.797117,-1.367 2.368661,-2.8912 1.742212,-2.8131 -4.993427,0.6233 -4.236031,2.161 -7.701866,3.1822 -7.701866,2.2695 0,-0.9841 -2.817366,-1.0266 -6.921243,-0.1042 -11.885316,2.6705 -24.056852,3.337 -22.764895,1.2465 0.750201,-1.2137 -0.560865,-1.5668 -3.636113,-0.9789 -5.882366,1.1244 -5.883699,1.0615 -0.269871,-12.7543 5.356957,-13.1834 5.340891,-13.0596 1.693428,-13.0596 -2.088871,0 -2.515291,-1.0421 -1.602817,-3.9171 0.904064,-2.8484 0.1652,-4.7302 -2.708363,-6.8977 -2.173376,-1.6394 -4.207847,-4.1666 -4.521048,-5.61588 -2.428015,-11.23551 -3.502819,-14.43771 -4.845865,-14.43771 -0.849132,0 -0.95127,-1.8386 -0.226974,-4.08552 1.758204,-5.45469 1.501844,-45.37758 -0.363017,-56.5323 -1.063022,-6.35848 -0.912528,-8.51547 0.531844,-7.62279 1.274617,0.78776 1.617251,0.21007 0.933004,-1.57305 -0.594752,-1.54991 -0.241763,-2.81799 0.784419,-2.81799 1.026182,0 2.402127,2.44195 3.057656,5.42654 0.655528,2.98461 1.946109,5.8927 2.867958,6.46244 3.117157,1.92651 1.701381,-3.21833 -4.459432,-16.20531 C 11.106329,873.2325 4.485458,846.25908 4.4744267,814.20878 c -0.0077,-22.45349 2.5270422,-28.54409 13.0213243,-31.28795 4.319952,-1.1295 8.87584,-3.37657 10.124196,-4.99349 1.986847,-2.57346 2.269737,-2.34881 2.269737,1.80239 0,3.78411 1.091639,4.98201 5.403067,5.92895 2.971686,0.6527 6.235298,0.67237 7.252473,0.0438 1.017176,-0.62864 4.586936,0.94502 7.932809,3.49703 3.345858,2.55203 6.61909,4.64004 7.27385,4.64004 2.144378,0 1.133417,-6.27795 -1.590996,-9.87994 -2.895153,-3.82775 -3.572383,-11.135 -1.169615,-12.61999 0.822975,-0.50863 1.435808,0.82199 1.361844,2.95692 -0.09108,2.62693 1.242509,4.217 4.125316,4.91897 2.894384,0.70481 5.023286,3.25813 6.641695,7.96579 3.083968,8.97066 3.823456,9.56058 6.265287,4.99798 1.645427,-3.0745 1.502282,-3.78708 -0.760774,-3.78708 -3.443287,0 -3.465307,-3.12879 -0.06391,-9.07896 1.42724,-2.4967 2.623947,-5.08893 2.659332,-5.76049 0.09907,-1.88021 -12.334023,-5.5415 -14.426481,-4.24829 -1.018206,0.62929 -1.851279,0.27884 -1.851279,-0.77879 0,-2.41092 2.424285,-2.3295 12.710531,0.42692 4.958675,1.32878 8.171059,3.23301 8.171059,4.84366 0,2.08118 4.981434,5.77226 11.414227,8.45754 0.285705,0.11926 0.804032,2.97913 1.151822,6.35526 0.347801,3.37613 1.190547,7.48422 1.872794,9.12909 0.682241,1.64487 1.025103,4.09619 0.761918,5.44737 -0.263189,1.35119 0.179561,4.40313 0.983868,6.78215 1.132702,3.3503 1.820725,3.75965 3.05186,1.81578 1.272709,-2.00948 1.595019,-1.89771 1.617289,0.56081 0.0507,5.60078 -3.666678,5.46207 -5.644172,-0.21059 -2.416062,-6.9307 -5.714451,-7.40183 -4.131674,-0.59014 1.071562,4.6116 4.433721,8.6508 8.263353,9.92735 0.866953,0.28899 1.954443,2.48912 2.416653,4.88917 0.46222,2.40005 2.38168,6.07431 4.2655,8.16505 5.42641,6.02244 27.54237,35.25711 27.54237,36.40774 0,0.57239 5.02243,7.3609 11.16094,15.08558 7.57079,9.52704 12.38951,14.04487 14.98026,14.04487 2.10063,0 4.81473,1.22566 6.03131,2.72369 1.21661,1.49803 2.22547,1.90658 2.24194,0.9079 0.045,-2.73219 -3.17647,-7.26317 -5.16411,-7.26317 -0.96279,0 -4.34849,-3.67697 -7.52378,-8.17106 -3.17527,-4.49407 -10.84208,-13.07368 -17.03736,-19.06578 -6.19525,-5.99211 -13.19569,-13.75461 -15.55651,-17.25002 -2.36081,-3.49538 -7.89004,-10.64507 -12.28717,-15.88816 -10.471341,-12.48596 -7.51848,-12.21851 4.99505,0.45239 7.43045,7.52392 10.77213,9.73259 13.55639,8.96002 2.65299,-0.73612 3.00303,-0.54533 1.24118,0.67652 -1.90699,1.32248 -1.09751,2.70571 3.63158,6.20569 6.69513,4.95502 12.44257,7.46788 12.43762,5.43788 -0.001,-0.71767 10.62063,-1.05515 23.60527,-0.74996 12.98464,0.30519 23.60845,-0.11607 23.60845,-0.93614 0,-0.82005 -6.74111,-1.56252 -14.98027,-1.64993 -32.15028,-0.34104 -40.05174,-0.73946 -38.83309,-1.95812 0.6961,-0.69608 5.06111,-1.33028 9.70004,-1.40932 5.23264,-0.0892 8.73546,-1.04678 9.22741,-2.52265 0.56227,-1.68678 -0.98315,-2.2798 -5.31188,-2.03827 -10.20441,0.56937 -10.64432,0.3056 -10.64432,-6.38258 0,-3.49538 -0.86847,-6.35526 -1.92993,-6.35526 -1.06147,0 -1.78447,-1.42994 -1.60669,-3.17763 0.17779,-1.74771 0.22913,-5.83324 0.11415,-9.07895 -0.18091,-5.10605 -0.85143,-5.90133 -4.97555,-5.90133 -4.36999,0 -4.67206,0.47198 -3.63157,5.67435 0.62417,3.12088 1.13487,6.3294 1.13487,7.13002 0,0.80061 1.05946,1.71987 2.35435,2.04277 1.92071,0.47894 1.92564,1.42321 0.0267,5.12656 l -2.32758,4.53947 -0.0268,-4.88625 c -0.0146,-2.68745 -0.69588,-5.29981 -1.51367,-5.80523 -2.18098,-1.34791 -2.47065,-17.90484 -0.36888,-21.08484 1.44595,-2.18773 1.80565,-1.86021 1.82798,1.66446 0.0233,3.67336 2.69533,4.10979 2.77929,0.45396 0.0462,-2.01093 2.81886,-5.75 4.26384,-5.75 0.74448,0 1.55414,3.3983 1.79921,7.5518 0.24507,4.15348 1.21932,8.9975 2.16496,10.76448 0.94567,1.76699 1.89969,7.35682 2.12009,12.4219 0.22037,5.06506 0.97327,9.2092 1.6731,9.2092 3.49462,0 6.85563,-2.42332 5.77842,-4.16631 -0.66964,-1.08348 -1.439,-4.47057 -1.70973,-7.52682 -0.65086,-7.34753 -3.48716,-21.09581 -5.17339,-25.07661 -0.79472,-1.87619 -0.55644,-3.17764 0.58177,-3.17764 1.06029,0 2.45371,2.80339 3.0965,6.22976 0.6428,3.42636 2.10975,6.01161 3.25991,5.74496 1.15016,-0.26663 1.47838,-0.14206 0.72936,0.27682 -2.00583,1.12178 -1.65734,9.14099 0.45396,10.44583 0.99868,0.61721 1.81578,4.75097 1.81578,9.18611 0,6.60899 0.6006,8.0639 3.32895,8.0639 1.83091,0 3.81739,-0.48845 4.41436,-1.08542 1.84639,-1.84639 -0.64938,-5.99883 -3.05148,-5.07706 -1.24892,0.47926 -2.27078,-0.38944 -2.27078,-1.93043 0,-1.54102 1.06904,-2.80183 2.37566,-2.80183 1.70946,0 2.04789,-1.65492 1.20692,-5.90132 -1.10949,-5.60215 -0.99212,-5.76483 2.31512,-3.20893 3.36924,2.60379 3.37931,2.5692 0.30625,-1.05086 -4.11818,-4.85127 -4.05291,-8.97385 0.14709,-9.29022 3.00303,-0.22621 3.29276,1.22986 2.99409,15.04781 l -0.33064,15.29826 7.77437,0 c 6.6186,0 7.89133,-0.60736 8.56127,-4.08553 l 0.7869,-4.08552 0.2473,4.08552 c 0.42317,6.99207 5.40056,4.80114 6.18767,-2.72368 l 0.71226,-6.80921 0.30526,6.80921 c 0.2965,6.61433 0.5001,6.80763 7.11444,6.754 5.98398,-0.0485 6.36911,-0.30103 3.17764,-2.08358 -1.99737,-1.11562 -3.91921,-2.26358 -4.27075,-2.55106 -1.18515,-0.96918 4.24853,-7.10808 6.76325,-7.64099 1.63381,-0.34624 2.10255,0.488 1.3606,2.42146 -0.72772,1.89644 -0.32098,2.67937 1.13908,2.19268 2.74433,-0.91479 3.08191,-13.30749 0.34941,-12.82699 -1.0569,0.18584 -2.11995,-3.02378 -2.36239,-7.13249 -0.24243,-4.10871 -0.89316,-8.20234 -1.44606,-9.09695 -0.5529,-0.8946 0.54012,-0.66144 2.42897,0.51815 2.56064,1.59915 3.25127,3.71175 2.71502,8.30511 -0.43586,3.73357 0.0744,6.16039 1.29526,6.16039 1.10795,0 2.01446,2.45131 2.01446,5.44737 0,5.69284 1.82827,6.47122 8.17104,3.47879 3.11157,-1.46799 2.91658,-1.61577 -1.36183,-1.03206 -2.74639,0.37469 -4.99343,-0.0226 -4.99343,-0.88273 0,-0.86022 1.68927,-1.564 3.75394,-1.564 3.05357,0 3.52026,-0.76226 2.50145,-4.08552 -1.70393,-5.55811 -4.36823,-8.62502 -7.49278,-8.62502 -1.43469,0 -2.09901,-0.82442 -1.47626,-1.83203 2.0876,-3.37781 -0.99103,-8.65332 -5.55948,-9.52664 -2.48825,-0.47566 -4.96959,-0.14395 -5.51412,0.73706 -0.54448,0.88106 -1.75065,1.13179 -2.68033,0.55723 -0.92967,-0.57456 -1.69032,0.96981 -1.69032,3.43197 0,3.68757 0.72013,4.32456 4.08552,3.61381 3.53277,-0.74611 3.6658,-0.59376 0.98331,1.12591 -1.70621,1.09379 -2.86151,2.98851 -2.56733,4.21045 0.29417,1.22196 0.19215,1.60889 -0.22674,0.85988 -1.76236,-3.15131 -4.2423,-1.03128 -3.18607,2.72369 0.89518,3.18246 0.73147,3.48348 -0.74065,1.36184 -1.03944,-1.49802 -2.84165,-6.94394 -4.0049,-12.10199 -1.52081,-6.74349 -2.82395,-9.10626 -4.63845,-8.40996 -1.52511,0.58522 -2.09444,2.31997 -1.43907,4.38488 0.5993,1.88822 0.21739,3.41653 -0.85378,3.41653 -1.066,0 -1.93816,-1.83848 -1.93816,-4.08552 0,-3.43609 -0.98178,-4.08553 -6.17622,-4.08553 -5.22758,0 -5.92481,0.46973 -4.53946,3.05826 0.9002,1.68204 1.54194,4.95047 1.4261,7.26317 -0.15588,3.11198 -0.42758,3.37319 -1.04531,1.00502 -0.45908,-1.75992 -1.58995,-2.73308 -2.51306,-2.16257 -0.9231,0.5705 -1.67837,0.17196 -1.67837,-0.88566 0,-1.05763 0.86533,-1.92295 1.92295,-1.92295 1.05762,0 1.41795,-0.81711 0.80073,-1.81578 -2.13935,-3.46156 -4.5396,-1.7916 -4.56728,3.17762 -0.0212,3.80022 -0.43276,4.35302 -1.72253,2.31344 -1.38396,-2.18849 -2.02372,-1.85551 -3.48869,1.81581 -1.38889,3.48067 -1.81992,3.73443 -1.90905,1.12385 -0.0762,-2.22978 -1.03765,-3.0179 -2.83877,-2.32672 -1.49802,0.57485 -2.72368,0.34901 -2.72368,-0.50186 0,-0.85087 1.71643,-1.99588 3.81428,-2.54448 2.25565,-0.58986 3.29356,-1.83997 2.54001,-3.05926 -0.70083,-1.13397 -2.41726,-1.62315 -3.81428,-1.08708 -1.39701,0.53607 -2.54001,0.18323 -2.54001,-0.78412 0,-2.73485 4.87557,-2.0712 8.04135,1.09458 2.45842,2.45841 2.85338,2.47936 2.85338,0.15132 0,-1.48614 1.0214,-3.11421 2.26975,-3.61792 1.81578,-0.73269 1.81578,-0.94453 0,-1.05921 -1.24835,-0.0788 -2.26975,-0.80859 -2.26975,-1.62168 0,-1.74438 9.16681,-1.77565 11.82543,-0.0403 1.01121,0.66004 3.87108,0.0751 6.35527,-1.29997 5.12978,-2.83939 4.2156,-3.03643 -12.27938,-2.64663 -6.24177,0.14752 -11.34868,-0.45352 -11.34868,-1.33562 0,-0.88211 6.12841,-1.55125 13.61867,-1.48699 7.49027,0.0643 13.61855,-0.49599 13.61844,-1.245 -2.4e-4,-1.22544 -12.54534,-2.14882 -23.15159,-1.70404 -2.24702,0.0942 -4.08552,-0.68862 -4.08552,-1.73967 0,-1.175 3.14517,-1.59711 8.16634,-1.09601 6.77361,0.67596 7.81335,0.38962 6.09652,-1.67905 -3.06976,-3.69882 -0.65464,-4.88071 2.8375,-1.38858 1.65352,1.65352 5.01864,3.12237 7.47804,3.2641 2.77504,0.15994 4.47217,1.35699 4.47294,3.15495 9.9e-4,2.02151 1.5106,2.80783 4.99472,2.60146 3.0177,-0.17872 5.48178,0.83029 6.22764,2.55016 1.05316,2.42843 1.25295,2.44567 1.36184,0.11752 0.0984,-2.10363 2.20657,-2.63582 9.20658,-2.32413 4.99342,0.22237 9.07895,-0.38832 9.07895,-1.35713 0,-0.96877 -4.90263,-1.7614 -10.89474,-1.7614 -10.71853,0 -10.89182,-0.0807 -10.71374,-4.99342 0.15034,-4.1458 0.38144,-4.37697 1.36183,-1.36184 1.67314,5.14561 9.31441,5.32108 9.46701,0.21742 0.10594,-3.53774 0.27499,-3.48188 2.09237,0.69047 1.62931,3.74062 2.1118,3.98027 2.74172,1.36184 0.893,-3.71197 4.12976,-4.30495 4.12976,-0.75658 0,1.33157 1.29103,2.42106 2.86899,2.42106 2.25682,0 2.66739,-1.38836 1.92415,-6.50659 l -0.94483,-6.50658 2.16137,6.50593 c 1.9587,5.89583 2.72828,6.46148 8.20685,6.0319 4.75518,-0.37285 5.82094,0.11115 4.99342,2.26759 -0.57862,1.50788 -1.05206,3.43506 -1.05206,4.28259 0,0.84757 -1.83847,1.8951 -4.08553,2.32791 l -4.08551,0.78691 4.08551,0.24728 c 2.24706,0.13596 4.08553,1.11259 4.08553,2.17022 0,1.05762 -0.65185,1.5201 -1.44855,1.02771 -3.6042,-2.22754 -6.41643,2.70767 -6.75956,11.86249 -0.25294,6.74894 -0.13423,7.35221 0.3902,1.98291 0.45517,-4.66046 1.67296,-7.71709 3.07447,-7.71709 2.38067,0 2.78015,6.20011 0.5436,8.43668 -2.16808,2.16809 -1.34855,14.82494 1.02222,15.78691 1.70808,0.69307 1.59573,1.39764 -0.45395,2.8472 -2.42105,1.71219 -2.42105,1.9324 0,1.98183 2.25396,0.0461 2.29212,0.32894 0.2213,1.64058 -1.37629,0.87173 -1.90361,2.55375 -1.17182,3.73782 0.90532,1.46482 0.10907,1.39012 -2.49106,-0.23377 -2.10187,-1.31264 -3.82159,-3.50314 -3.82159,-4.86778 0,-1.51651 -1.1167,-2.05266 -2.8722,-1.37901 -1.5797,0.60619 -3.70989,1.10216 -4.73373,1.10216 -1.02386,0 -1.39124,1.22566 -0.81636,2.72368 0.57483,1.49804 0.2537,2.72369 -0.71363,2.72369 -0.96735,0 -1.7588,-0.87548 -1.7588,-1.94549 0,-1.07002 -1.42265,-0.52285 -3.16143,1.21592 -2.27317,2.27317 -2.52826,3.37249 -0.9079,3.91261 1.23944,0.41314 2.25352,1.58761 2.25352,2.60991 0,1.02233 -1.12609,1.42663 -2.5024,0.89849 -1.37634,-0.52815 -3.53897,-0.003 -4.80587,1.16756 -1.77389,1.63866 -2.00883,1.60603 -1.02199,-0.14192 0.70479,-1.24836 0.41611,-2.26974 -0.6415,-2.26974 -1.05764,0 -1.93548,1.02138 -1.95077,2.26974 -0.0185,1.51315 -0.61454,1.36183 -1.788,-0.45395 -1.52638,-2.36194 -1.76387,-2.32592 -1.78798,0.27109 -0.0296,3.18691 9.48681,4.83912 21.30772,3.69939 7.67044,-0.73958 8.10549,-5.57711 0.45396,-5.04741 -2.99606,0.20744 -5.44736,-0.28251 -5.44736,-1.08875 0,-0.80626 2.38322,-1.46591 5.29605,-1.46591 2.91281,0 5.70818,-1.0214 6.21191,-2.26974 0.73268,-1.81578 0.94451,-1.81578 1.05919,0 0.0961,1.52329 3.42771,2.26974 10.13021,2.26974 5.49276,0 9.98685,0.69828 9.98685,1.55172 0,0.85346 -4.5339,1.34685 -10.07533,1.09642 -6.80659,-0.30759 -9.85517,0.20515 -9.39672,1.58047 0.38506,1.15519 4.15413,1.91467 8.71347,1.75581 7.14565,-0.24898 7.43203,-0.11708 2.58752,1.19246 -2.99606,0.80981 -9.73716,1.56907 -14.98027,1.68724 -8.78003,0.19787 -11.99142,2.11264 -7.84313,4.67642 0.92939,0.57437 1.55604,4.42974 1.3926,8.56749 -0.27997,7.08809 -0.77151,7.72988 -8.49897,11.09681 -11.31804,4.93136 -13.57105,6.85697 -10.55749,9.02328 1.61953,1.16423 1.22081,1.31414 -1.2759,0.47969 -1.99737,-0.66754 -4.44869,-1.35746 -5.44737,-1.53313 -0.99869,-0.17566 -2.31492,-1.00075 -2.92496,-1.83351 -0.61003,-0.83274 -1.62204,-0.17745 -2.24891,1.45616 -0.66616,1.73597 -0.39389,2.50925 0.65518,1.86087 0.98725,-0.61014 1.79499,-0.1566 1.79499,1.00786 0,1.16746 1.26412,1.63213 2.81801,1.03586 1.69373,-0.64996 2.35176,-0.32701 1.6494,0.80948 -0.64275,1.03997 -2.07785,1.58775 -3.18916,1.21733 -1.1113,-0.37044 -3.79443,1.38875 -5.96254,3.90933 l -3.942,4.58284 -1.20701,-5.49558 c -1.88179,-8.56766 -10.95537,-18.09028 -28.4386,-29.84598 -8.83435,-5.94022 -16.38791,-10.8004 -16.78567,-10.8004 -0.39777,0 7.34657,7.92841 17.20961,17.61867 13.47064,13.23463 18.47064,19.44716 20.09418,24.96711 1.98604,6.75248 2.21364,6.95076 2.80633,2.44483 0.35476,-2.697 -0.35623,-6.78252 -1.58,-9.07895 -2.022,-3.79437 -1.94936,-3.94794 0.79596,-1.68325 1.66154,1.37064 3.02096,3.978 3.02096,5.79414 0,1.81615 0.87282,3.84152 1.93957,4.50083 1.0668,0.65928 1.50098,2.34172 0.9649,3.73873 -0.5624,1.46559 0.15331,2.54001 1.692,2.54001 1.46668,0 2.6667,-0.95328 2.6667,-2.11841 0,-1.16514 0.51234,-1.60609 1.13854,-0.97991 0.62617,0.62621 4.03912,-0.0734 7.58428,-1.55467 5.16058,-2.15623 6.73821,-2.23237 7.91262,-0.38194 1.06858,1.68373 1.4744,1.44852 1.49466,-0.86639 0.0146,-1.7477 1.23684,-3.17762 2.71459,-3.17762 1.47773,0 4.35419,-3.26842 6.39216,-7.26316 2.03797,-3.99474 3.22185,-7.26316 2.6309,-7.26316 -0.59098,0 0.0279,-1.10248 1.37544,-2.44995 2.45522,-2.45523 9.42998,-2.87691 11.60524,-0.70163 0.6376,0.63759 3.71838,0.76568 6.84622,0.28464 3.66065,-0.56301 1.92104,0.60066 -4.8824,3.26589 -9.21485,3.60989 -11.01105,5.13878 -14.01597,11.92993 -2.07307,4.68515 -2.56455,7.27438 -1.23327,6.49708 1.21732,-0.71077 0.65675,0.48235 -1.24575,2.65139 -2.40829,2.74572 -2.72789,3.94371 -1.0521,3.94371 1.32381,0 6.1488,-3.9337 10.72222,-8.74153 4.57339,-4.80785 5.90793,-6.03351 2.96563,-2.72368 -2.94229,3.3098 -4.63833,6.01784 -3.76899,6.01784 0.86933,0 -0.23147,1.92885 -2.4462,4.28634 l -4.0268,4.28633 7.2989,-0.41183 c 4.01437,-0.22651 6.86144,0.29596 6.3268,1.16104 -2.56323,4.1474 15.7939,-0.39877 21.48566,-5.32096 1.84288,-1.59371 3.17764,-1.91208 3.17764,-0.75794 0,1.09453 -0.83877,2.50845 -1.86395,3.14205 -2.72822,1.68615 -1.39262,6.75208 2.77184,10.51355 3.59115,3.24363 3.58436,3.25715 -0.60946,1.21472 -6.42876,-3.13087 -6.74255,-0.80105 -0.51248,3.80504 3.03535,2.24413 5.11631,4.7315 4.62438,5.52751 -0.49196,0.79597 1.12501,2.77046 3.59329,4.38774 2.46827,1.61728 4.10963,3.92588 3.64747,5.13026 -0.46215,1.20437 2.03845,4.97996 5.55692,8.39022 3.51851,3.41023 6.39726,7.37207 6.39726,8.80407 0,2.01645 1.86575,2.39334 8.27303,1.67115 7.51869,-0.84746 7.93918,-0.69862 4.61136,1.63226 -2.21472,1.55126 -5.66338,2.13632 -8.72702,1.48054 -4.92264,-1.0537 -4.96301,-1.00045 -1.43368,1.89132 1.99736,1.63655 3.46617,3.61835 3.26403,4.40402 -0.20216,0.78565 1.8406,1.19464 4.53947,0.90888 l 4.90702,-0.51954 -4.28667,3.50241 c -2.3577,1.92633 -3.33086,3.50241 -2.1626,3.50241 1.16827,0 1.53182,0.95837 0.80791,2.12972 -3.70981,6.00249 7.79563,-4.86056 12.23523,-11.5522 2.85626,-4.30514 5.1967,-6.90485 5.20098,-5.77714 0.0131,3.26409 24.30279,6.23026 30.83356,3.76516 4.21587,-1.5913 5.95554,-1.52998 7.73439,0.27262 5.41694,5.48919 -18.16493,18.47592 -28.73299,15.82351 -2.68333,-0.67348 -5.06558,-0.0163 -6.56537,1.81033 -7.28871,8.87834 -8.82111,9.93773 -11.92843,8.24629 -5.94541,-3.23617 -15.48204,-13.82644 -18.13195,-20.13517 -1.46116,-3.4786 -4.1351,-8.20429 -5.94208,-10.50152 -2.95741,-3.75973 -3.36953,-3.85342 -4.12756,-0.93839 -0.59444,2.28591 -0.91223,1.90324 -1.08055,-1.3011 -0.13103,-2.49671 -1.06785,-5.76513 -2.08158,-7.26316 -1.35012,-1.99517 -1.51472,-1.31562 -0.61526,2.54056 0.87114,3.73477 0.62336,4.89065 -0.85275,3.97837 -1.33731,-0.8265 -2.0806,0.23276 -2.0806,2.96503 0,2.33801 -1.10596,8.51452 -2.45769,13.72559 -2.03023,7.82673 -2.04013,9.4746 -0.0571,9.4746 1.3204,0 1.9948,-1.05766 1.49872,-2.35051 -0.49612,-1.29282 0.28433,-5.71302 1.7343,-9.82269 1.44997,-4.10965 2.08579,-8.08552 1.41293,-8.83527 -0.67286,-0.74975 -0.20199,-0.77541 1.04637,-0.057 1.41451,0.81399 2.26973,5.37084 2.26973,12.09375 0,10.6737 0.0552,10.7876 5.22505,10.7876 2.87376,0 6.24225,1.22558 7.48549,2.72367 1.24325,1.49796 3.4148,2.72368 4.8257,2.72368 1.41087,0 4.53923,1.29343 6.95191,2.87418 2.41267,1.58096 5.85663,2.41665 7.65323,1.85732 1.7966,-0.55939 4.49219,-0.23109 5.99021,0.72953 1.49804,0.96062 1.89242,1.75904 0.87643,1.7742 -1.01601,0.0151 -1.71409,2.85941 -1.55133,6.32001 0.1627,3.4606 -0.37821,6.1163 -1.20219,5.9013 -0.824,-0.215 -2.78351,1.2434 -4.35446,3.2408 -2.57693,3.2765 -2.74013,3.3002 -1.66862,0.2427 1.03861,-2.9636 0.71033,-3.1335 -2.61547,-1.3535 -2.82184,1.5101 -4.98732,1.496 -8.39261,-0.055 -3.56164,-1.6228 -5.2208,-1.5671 -7.40849,0.2485 -2.40434,1.9954 -2.63397,1.8574 -1.56099,-0.9388 0.88656,-2.3104 0.60725,-2.8762 -0.94588,-1.9164 -1.21216,0.7492 -3.47618,0.3063 -5.03121,-0.9844 -3.11437,-2.5846 -7.88693,-3.7612 -7.637,-1.8827 0.55498,4.1712 -0.84556,5.8816 -1.85665,2.2677 -0.67282,-2.405 -2.62333,-4.5782 -4.3345,-4.8293 -2.59161,-0.3803 -2.78169,0.1591 -1.13821,3.2299 1.16449,2.1759 1.23265,3.2291 0.16632,2.57 -3.5092,-2.1689 -4.02346,4.8474 -0.7654,10.4428 3.24229,5.5682 16.35199,13.5216 22.63742,13.7336 1.74769,0.059 3.17764,1.2958 3.17764,2.7486 0,3.4104 -5.49567,4.1848 -39.03949,5.5004 -14.98027,0.5876 -29.42386,1.3284 -32.09687,1.6463 -2.67303,0.3177 -5.92881,-0.083 -7.2351,-0.89 -1.48132,-0.9155 -3.8654,-0.068 -6.33556,2.2529 -3.91852,3.6812 -20.70554,6.307 -23.35528,3.6533 z m 13.6665,-6.3558 c 5.71835,1.1437 12.12186,-4.5444 18.70958,-16.6194 3.48205,-6.3826 3.96252,-10.0523 3.96252,-30.26448 0,-12.6505 0.24467,-22.7559 0.54369,-22.45624 0.29902,0.29966 1.27302,7.61396 2.16444,16.25398 1.94203,18.82314 -0.16398,34.49094 -5.38301,40.04634 -5.82798,6.2036 -4.27511,7.6564 1.88033,1.7592 10.75294,-10.302 15.07684,-27.8946 11.38852,-46.33615 -1.02349,-5.11743 -1.4212,-5.49994 -2.59605,-2.49665 -1.18739,3.03529 -1.40581,3.0915 -1.51502,0.39062 -0.34541,-8.54116 -11.64746,-38.28492 -16.76019,-44.10802 -6.99445,-7.9662 -5.25951,-8.2706 2.28294,-0.40054 6.37744,6.65446 15.0726,22.90853 16.98767,31.75549 0.70011,3.23429 2.02716,6.34664 2.94902,6.91639 0.92185,0.56973 1.67608,5.4818 1.67608,10.91552 0,5.43387 0.81712,9.87975 1.8158,9.87975 4.04416,0 2.37938,-18.65349 -2.80337,-31.4113 -2.35269,-5.7913 -3.8043,-11.7631 -3.22579,-13.27063 0.7011,-1.82706 -4.27203,-7.85344 -14.91514,-18.07392 -15.63315,-15.0124 -19.46026,-17.51569 -15.51861,-10.15068 2.31169,4.31947 2.61975,12.98542 0.46159,12.98542 -0.82572,0 -1.12449,-2.56737 -0.66394,-5.70528 0.56155,-3.82625 0.18509,-5.30218 -1.14308,-4.48133 -1.08923,0.67319 -1.5228,2.41658 -0.96344,3.8742 0.55932,1.45763 -0.24187,3.13329 -1.78043,3.72371 -1.5386,0.59041 -2.34952,2.24076 -1.80204,3.66747 0.69389,1.80824 0.10907,2.2539 -1.93042,1.47125 -3.65185,-1.40134 -3.83338,1.69954 -0.2725,4.65478 1.45933,1.21116 3.17805,3.96681 3.81933,6.12368 2.86808,9.64624 10.50821,24.6597 13.04418,25.63285 2.18233,0.83746 2.34044,0.53201 0.7294,-1.40919 -1.13128,-1.36308 -1.66069,-2.87455 -1.17646,-3.35876 0.48422,-0.48425 -1.15181,-6.06598 -3.63561,-12.40388 -2.4838,-6.33791 -4.11274,-11.92676 -3.61985,-12.41964 0.4929,-0.49288 0.89617,-0.0992 0.89617,0.8752 0,0.97427 1.25166,3.35749 2.78146,5.29606 2.47959,3.14214 2.477,2.75539 -0.0237,-3.56332 -1.54293,-3.8984 -2.487,-7.4063 -2.09797,-7.79534 0.38902,-0.38902 2.96418,4.84335 5.72258,11.6275 3.9867,9.80505 5.20112,16.20552 5.92142,31.20804 0.62714,13.06208 0.31249,18.5064 -1.02185,17.6818 -1.06041,-0.65532 -2.25315,0.2483 -2.65053,2.0084 -0.39739,1.7598 -0.76147,-0.4772 -0.80907,-4.97132 -0.0684,-6.46344 0.2057,-7.22243 1.31197,-3.63154 1.2512,4.06108 1.41763,4.13229 1.57956,0.67627 0.0994,-2.12482 -1.09076,-4.91867 -2.64513,-6.20876 -1.55439,-1.28993 -2.61256,-1.59426 -2.35148,-0.6762 0.71941,2.52976 -3.68781,14.44815 -8.57851,23.19855 -3.97717,7.1159 -15.55665,16.6803 -27.74804,22.9192 -6.04899,3.0955 -2.53043,5.7794 7.78114,5.9353 4.64443,0.07 8.91316,0.8861 9.48605,1.8129 0.62271,1.0078 1.79586,0.9311 2.91724,-0.1902 1.0316,-1.0316 4.10001,-1.4308 6.81868,-0.8871 z m -9.10422,-0.6931 c 0,-0.5466 3.26841,-4.5397 7.26315,-8.8734 7.70921,-8.3636 9.94652,-8.2304 3.31718,0.1975 -3.91254,4.9739 -3.91372,4.9992 -0.14076,2.98 4.64357,-2.4852 11.34995,-10.7573 11.34995,-13.9997 0,-1.3045 0.81463,-2.8752 1.81031,-3.4905 3.07586,-1.9011 -1.71805,8.7173 -6.01679,13.3267 -3.86765,4.1472 -17.58308,11.8379 -17.58308,9.8594 z m 15.35955,-73.24457 c -0.65827,-1.06511 -0.80745,-2.32601 -0.33147,-2.802 0.47594,-0.47597 1.34923,0.3955 1.94062,1.93661 1.22781,3.1996 0.18141,3.76242 -1.60915,0.86539 z M 70.72158,1032.0504 c 3.368142,0.3933 5.724445,0.068 5.236213,-0.7213 -0.488227,-0.7899 -2.06512,-1.4361 -3.504199,-1.4361 -1.439095,0 -2.616523,-1.1776 -2.616523,-2.6167 0,-2.99 2.936989,-5.3589 4.086789,-3.296 0.420961,0.7553 0.513667,0.3445 0.206016,-0.9124 -0.307641,-1.257 0.136984,-4.117 0.987963,-6.3552 1.438079,-3.7824 1.049902,-4.0698 -5.498298,-4.0698 -3.8751,0 -7.045633,0.661 -7.045633,1.4689 0,0.808 -0.80775,0.9699 -1.795003,0.3597 -0.992221,-0.6131 -1.353734,0.04 -0.808359,1.4617 0.542658,1.4143 -0.786352,5.9728 -2.953347,10.1302 -3.147155,6.0381 -4.441712,7.1426 -6.433314,5.4898 -1.920557,-1.594 -2.750536,-1.3991 -3.612977,0.8485 -0.615807,1.6046 -1.977383,2.3876 -3.025726,1.7396 -1.113046,-0.6879 -1.367034,-0.3058 -0.610467,0.9184 0.712589,1.1529 0.430285,2.0964 -0.62734,2.0964 -1.057621,0 -1.922952,-0.8171 -1.922952,-1.8158 0,-0.9987 -0.865328,-1.8158 -1.922951,-1.8158 -1.057624,0 -1.461087,0.7473 -0.896583,1.6607 0.564505,0.9133 -1.02e-4,2.0745 -1.254678,2.5803 -1.254578,0.5058 0.319478,0.9842 3.497903,1.0631 4.418004,0.1089 6.075691,-0.7918 7.038971,-3.8267 1.254967,-3.9541 1.273862,-3.951 4.714679,0.7725 l 3.454652,4.7425 4.590619,-4.5906 c 3.538247,-3.5384 5.994488,-4.4267 10.714545,-3.8759 z m 32.69475,6.9422 c 0.63616,-1.0292 -0.0926,-1.3338 -1.70863,-0.7136 -3.145705,1.2071 -3.72125,2.5087 -1.10936,2.5087 0.93975,0 2.20784,-0.8079 2.81799,-1.7951 z m 23.27055,-0.916 c 4.80227,0.2765 8.28206,0.054 7.73288,-0.4957 -0.54921,-0.5493 -0.0884,-2.0952 1.02384,-3.4354 2.72046,-3.278 0.18288,-3.1172 -3.1328,0.1985 -1.65399,1.6539 -4.91465,2.3435 -8.7566,1.8515 -4.33042,-0.5543 -6.84174,0.1351 -8.58369,2.3583 -2.13435,2.7231 -2.09953,2.8672 0.26131,1.081 1.49803,-1.1335 6.65281,-1.8345 11.45506,-1.5582 z m -26.996174,-1.8862 c 1.938584,-1.4663 2.755684,-2.64 1.815794,-2.6082 -0.93989,0.031 -3.294993,1.2575 -5.233576,2.7237 -1.938579,1.4662 -2.755688,2.64 -1.815792,2.6082 0.939901,-0.031 3.295005,-1.2574 5.233574,-2.7237 z m 10.093744,-2.6089 c 0,-0.9673 -1.22566,-1.2885 -2.72368,-0.7137 -1.49804,0.5749 -2.7237,1.3664 -2.7237,1.7587 0,0.3928 1.22566,0.7138 2.7237,0.7138 1.49802,0 2.72368,-0.7915 2.72368,-1.7588 z m 113.51451,-2.3267 c -0.71712,-2.2471 -1.17422,-8.7067 -1.01579,-14.355 0.15833,-5.6481 -0.57582,-10.8033 -1.63163,-11.4558 -1.26839,-0.7841 -1.9197,2.5462 -1.9197,9.8154 0,7.8551 -0.67982,11.0019 -2.37664,11.0019 -1.30714,0 -3.88224,1.1009 -5.72243,2.4466 -2.61236,1.9101 -2.82595,2.7677 -0.97438,3.9121 1.56741,0.9687 1.93216,0.7548 1.07579,-0.6308 -0.87351,-1.4134 0.54886,-2.0962 4.36609,-2.0962 3.81723,0 5.23961,0.6828 4.36609,2.0962 -0.80272,1.2989 -0.49812,1.6034 0.80071,0.8007 1.153,-0.7125 2.09636,-0.4302 2.09636,0.6274 0,1.0577 0.50384,1.923 1.11967,1.923 0.61583,0 0.53295,-1.8386 -0.18414,-4.0855 z m -124.863199,1.1803 c 6.371649,-1.2407 4.796059,-4.1272 -1.815787,-3.3265 -4.667949,0.5651 -5.14232,0.3691 -2.26974,-0.9387 7.207486,-3.2812 20.260176,-1.6785 17.866926,2.1939 -0.69377,1.1223 -0.30408,1.3658 0.94793,0.5921 1.16928,-0.7227 1.71309,-1.9821 1.20844,-2.7986 -0.50463,-0.8164 0.29915,-2.4942 1.78617,-3.7285 1.48703,-1.234 2.7037,-1.451 2.7037,-0.4819 0,0.9689 2.46602,1.8319 5.48006,1.9177 3.7199,0.1065 5.09238,-0.5347 4.27309,-1.9935 -0.8202,-1.4605 -0.42335,-1.4219 1.23836,0.1205 1.34494,1.2485 3.30331,2.2572 4.35191,2.242 1.04864,-0.014 0.81919,-0.7171 -0.50985,-1.5597 -1.73109,-1.0975 0.41514,-3.1299 7.56728,-7.1664 12.32112,-6.9536 15.07011,-10.4521 6.93412,-8.825 -3.92866,0.7857 -5.73844,0.4468 -5.7575,-1.0784 -0.0211,-1.6886 -0.38061,-1.6684 -1.49247,0.083 -1.50916,2.3778 -6.75456,2.2875 -10.71551,-0.1848 -1.54016,-0.9612 -1.90813,-0.5154 -1.16757,1.4145 1.27561,3.3242 -3.83373,3.9612 -5.83244,0.7271 -0.93845,-1.5184 -1.83775,-1.3942 -3.2848,0.454 -1.24823,1.5941 -5.80406,2.6176 -12.19566,2.7398 -9.459381,0.1808 -10.145948,-0.084 -9.419097,-3.6317 0.739359,-3.6088 0.642965,-3.5909 -1.693913,0.3159 -1.362845,2.2784 -3.179274,3.504 -4.036503,2.7237 -0.857224,-0.7804 -1.061381,-0.5438 -0.453686,0.5253 0.607709,1.0693 -0.547207,4.6607 -2.566448,7.9812 -2.943601,4.8403 -3.194906,6.3391 -1.267743,7.5609 1.57811,1.0007 0.340045,1.5336 -3.604852,1.5519 -3.304664,0.014 -5.604486,0.6814 -5.110708,1.4803 1.009145,1.6329 12.602514,2.3035 18.836291,1.0896 z m 24.059219,-9.8053 c -2.32766,-1.5043 -2.26164,-1.7642 0.45395,-1.7881 1.74771,-0.016 3.17763,0.7894 3.17763,1.7881 0,2.2146 -0.20479,2.2146 -3.63158,0 z m -14.86678,-8.5035 c 1.31077,-0.5246 2.87688,-0.4601 3.48027,0.1438 0.60336,0.6032 -0.46909,1.0325 -2.38324,0.9535 -2.11528,-0.087 -2.54555,-0.5174 -1.09703,-1.097 z m 14.86678,14.7308 c 0,-0.4992 -1.63421,-0.034 -3.63158,1.0359 -1.99737,1.0689 -3.63158,2.3521 -3.63158,2.8513 0,0.4995 1.63421,0.034 3.63158,-1.0355 1.99737,-1.069 3.63158,-2.3523 3.63158,-2.8517 z m 18.3895,-3.9576 c 2.25862,-2.88 2.19439,-2.9442 -0.68554,-0.6856 -1.7477,1.3707 -3.17764,2.8005 -3.17764,3.1776 0,1.4944 1.49109,0.5326 3.86318,-2.492 z m 114.16316,2.492 c 0,-0.3771 -1.42992,-1.8069 -3.17762,-3.1776 -2.87995,-2.2586 -2.94419,-2.1944 -0.68558,0.6856 2.37209,3.0246 3.8632,3.9864 3.8632,2.492 z m -14.61247,-4.7178 c 5.4845,-2.7979 6.82194,-4.3921 6.07649,-7.2427 -0.52571,-2.0103 -1.71281,-3.1874 -2.63796,-2.6155 -2.02869,1.2538 0.036,-8.4747 2.32944,-10.9765 0.86974,-0.9489 1.58134,-5.18548 1.58134,-9.4148 0,-4.22933 0.80474,-9.80628 1.78826,-12.39313 3.27053,-8.60213 5.36857,-27.19646 4.05137,-35.90598 -0.91411,-6.04419 -3.45658,-11.31405 -8.56288,-17.7486 -6.552,-8.25633 -7.79583,-9.03998 -12.71052,-8.00805 -2.9963,0.62911 -6.26491,1.98037 -7.2636,3.00279 -1.23375,1.26305 -0.21517,1.48165 3.17763,0.68199 6.69701,-1.57844 6.3732,0.41598 -0.45394,2.79596 -5.51311,1.92187 -7.34393,5.01449 -3.17763,5.36766 1.24835,0.10594 4.72105,0.11404 7.7171,0.0182 5.06051,-0.1619 5.15721,-0.0507 1.36184,1.56487 -5.56901,2.37065 -5.13848,3.60582 0.9079,2.60472 3.66202,-0.60632 4.28123,-0.35851 2.32233,0.92941 -1.46911,0.9659 -2.08695,2.34032 -1.37299,3.05428 0.71398,0.71398 2.97253,-0.21715 5.01898,-2.0692 2.90781,-2.6315 3.48225,-2.74551 2.62891,-0.52171 -0.6006,1.56509 -2.8828,3.78767 -5.07157,4.93905 l -3.97961,2.09344 4.02344,-0.7691 c 4.5119,-0.86246 4.78699,2.12447 0.51603,5.60335 -1.49802,1.2202 -1.95467,2.24452 -1.0148,2.2763 0.9399,0.0318 0.42509,1.07912 -1.14404,2.32748 -3.23368,2.57263 -6.40736,13.27625 -3.3821,11.40653 1.85377,-1.1457 1.37423,1.39817 -1.70056,9.02112 -3.1305,7.761 -5.49456,24.15168 -5.16578,35.81554 0.30017,10.6481 0.69586,11.9256 3.09273,9.9869 2.1796,-1.7632 2.46627,-1.7537 1.38489,0.046 -0.84096,1.3997 -0.35302,2.2698 1.27297,2.2698 2.99447,0 4.84091,-3.7893 4.84091,-9.9344 0,-2.3042 1.67437,-6.1187 3.72084,-8.4763 2.91276,-3.35577 3.31619,-3.49818 1.85753,-0.6552 -1.02482,1.9973 -2.72768,7.0931 -3.78414,11.3239 -1.33985,5.3656 -3.41203,8.5017 -6.85095,10.368 -7.79115,4.2288 0.20806,3.5159 8.60214,-0.7665 z m -8.99279,-32.14418 c 0,-1.0103 1.83849,-3.39349 4.08551,-5.296 l 4.08554,-3.459 -3.61222,4.53947 c -1.98673,2.49664 -3.82521,4.87983 -4.08552,5.29601 -0.26032,0.41603 -0.47331,-0.0697 -0.47331,-1.08048 z M 49.807762,1018.0903 c 0,-0.9987 -0.792079,-0.5902 -1.760178,0.9078 -0.968099,1.4981 -1.760181,3.5409 -1.760181,4.5396 0,0.9986 0.792082,0.5901 1.760181,-0.9079 0.968099,-1.4981 1.760178,-3.5408 1.760178,-4.5395 z m 111.976498,1.7774 c 1.85997,-2.0185 2.76897,-2.8766 2.01993,-1.9067 -3.26665,4.2299 1.79432,5.3767 8.07773,1.8302 2.4961,-1.4089 2.80026,-3 1.59498,-8.3443 -0.81912,-3.6318 -2.68913,-8.3163 -4.15556,-10.41 -2.61796,-3.73768 -2.821,-3.64309 -11.2101,5.2174 -4.69909,4.963 -9.93677,9.8602 -11.63925,10.8826 -2.88271,1.7309 -2.88776,2.0206 -0.0732,4.2162 4.39023,3.4249 11.4927,2.739 15.38545,-1.4854 z m -1.1577,-5.4089 c 3.38789,-3.4955 6.56834,-6.3553 7.06767,-6.3553 0.49935,0 -1.864,2.8598 -5.25187,6.3553 -3.38787,3.4952 -6.56832,6.3551 -7.06767,6.3551 -0.49934,0 1.864,-2.8599 5.25187,-6.3551 z m 55.67626,4.0855 c -0.50371,-1.2485 -0.91587,-0.2271 -0.91587,2.2696 0,2.4967 0.41216,3.5181 0.91587,2.2699 0.50372,-1.2485 0.50372,-3.2913 0,-4.5395 z M 67.639545,989.34026 c -2.018755,-6.57766 -6.990432,-8.63212 -5.492591,-2.26974 0.714577,3.03527 5.135675,8.32239 6.95931,8.32239 0.214989,0 -0.445039,-2.7236 -1.466719,-6.05265 z m 8.960848,-8.8952 c -0.40412,-3.26353 -0.743104,-1.03107 -0.753306,4.96104 -0.01019,5.99211 0.320467,8.66229 0.734773,5.93371 0.414316,-2.72849 0.422658,-7.63111 0.01844,-10.89475 z m 52.577237,10.20998 c 1.16379,-3.03281 -2.74372,-8.37704 -5.07259,-6.93763 -0.88553,0.54721 -1.61006,-0.68739 -1.61006,-2.74373 0,-2.0562 1.13626,-3.7387 2.52503,-3.7387 1.5339,0 2.81625,-2.49458 3.26697,-6.35526 0.40808,-3.4954 0.0888,-6.35526 -0.70924,-6.35526 -0.79814,0 -1.45118,1.99453 -1.45118,4.43229 0,2.43778 -0.8048,4.92972 -1.78845,5.53764 -1.60865,0.99422 -1.06557,-6.42313 0.95839,-13.0894 0.3693,-1.2164 -0.10999,-2.69455 -1.06502,-3.28482 -1.5922,-0.98402 -2.6422,5.6742 -1.82781,11.59028 0.57849,4.20225 -4.27774,1.15143 -5.57893,-3.50484 -0.67701,-2.42265 -1.31238,-3.29605 -1.41192,-1.94084 -0.10686,1.45472 -1.33527,2.02107 -2.99899,1.38264 -1.61592,-0.62007 -2.34477,-0.31567 -1.70863,0.71362 0.61015,0.98725 0.24404,1.795 -0.81359,1.795 -1.05762,0 -1.92295,1.22566 -1.92295,2.72369 0,3.85205 3.61917,3.40672 3.68933,-0.45395 0.0521,-2.87066 0.31612,-2.83599 2.7322,0.35869 1.47095,1.94499 2.28165,4.80486 1.80156,6.35526 -0.48009,1.55043 -1.07001,5.52336 -1.31093,8.82883 -0.34763,4.76986 -1.10596,5.83523 -3.67509,5.16339 -1.78039,-0.46558 -3.23818,0.0988 -3.23953,1.25332 -0.004,3.17298 19.9546,1.54501 21.21143,-1.73022 z m -56.32221,-2.9792 c -0.503727,-1.24839 -0.915853,-0.22706 -0.915853,2.26973 0,2.49664 0.412126,3.51799 0.915853,2.26974 0.503717,-1.24839 0.503717,-3.29123 0,-4.53947 z m 33.24184,-2.26974 c 0,-3.00725 -0.30263,-3.16341 -1.76019,-0.9079 -0.96808,1.49796 -1.76017,4.35789 -1.76017,6.35526 0,3.00711 0.30264,3.1633 1.76017,0.9079 0.96812,-1.49811 1.76019,-4.35789 1.76019,-6.35526 z m 30.71341,2.07537 c -0.16794,-3.10238 -0.37983,-3.24256 -1.04531,-0.69131 -0.45907,1.75987 -1.58996,2.73299 -2.51306,2.16254 -0.9231,-0.5706 -1.67836,0.21093 -1.67836,1.73661 0,1.71964 1.03515,2.37655 2.72367,1.72865 1.49803,-0.57481 2.6289,-2.79633 2.51306,-4.93649 z m 9.49533,2.23705 c -2.53271,-9.00588 -2.42984,-10.7104 0.57671,-9.55671 1.66741,0.63988 3.50125,3.51144 4.07524,6.3814 0.79784,3.98923 2.05919,5.21815 5.35612,5.21815 2.37187,0 4.31249,-0.8171 4.31249,-1.81579 0,-0.99868 -1.00197,-1.61155 -2.22662,-1.36184 -3.01271,0.61417 -4.08192,-7.61833 -1.32426,-10.19635 1.70728,-1.59597 1.93872,-0.93499 1.02704,2.93318 -0.69545,2.9506 -0.41993,4.99343 0.67347,4.99343 1.05104,0 1.85037,-4.70639 1.85037,-10.89479 0,-7.74739 -0.65569,-10.76362 -2.26974,-10.4408 -2.75781,0.55157 -4.52365,5.57108 -4.95057,14.07243 l -0.31912,6.35527 -2.1316,-5.87416 c -1.17239,-3.23077 -2.74443,-5.88635 -3.49344,-5.90135 -0.74901,-0.0149 -2.15331,-0.0271 -3.12065,-0.0271 -0.96733,0 -1.23702,-1.35971 -0.59931,-3.02154 0.77961,-2.03167 0.46351,-2.59145 -0.9649,-1.70865 -1.38556,0.85635 -2.13402,-0.14512 -2.15215,-2.87976 -0.0223,-3.37309 -0.37188,-3.66024 -1.788,-1.469 -2.31696,3.58525 -2.31696,12.71054 0,12.71054 0.9987,0 1.81581,3.13218 1.81581,6.96045 0,3.82841 0.56175,7.52231 1.24836,8.20898 1.99264,1.99261 5.17478,0.0522 4.40475,-2.68593 z m 10.83234,-17.17432 c 0.0871,-2.11531 0.51739,-2.54556 1.09703,-1.09705 0.52453,1.31077 0.46003,2.87689 -0.14337,3.48028 -0.60337,0.60335 -1.03254,-0.46909 -0.9537,-2.38323 z m -68.058165,14.24973 c -1.076343,-1.0764 -6.532572,1.73112 -6.532572,3.36126 0,0.90034 1.597049,0.63945 3.548995,-0.57946 1.951947,-1.21905 3.294553,-2.47093 2.983577,-2.7818 z M 42.04275,979.53921 c -0.460383,-1.76665 -0.867335,-0.76076 -0.904341,2.23531 -0.03701,2.99605 0.339672,4.44142 0.837058,3.21206 0.497388,-1.22922 0.527663,-3.68054 0.06728,-5.44737 z m 72.11953,-1.09453 c 0.70885,-3.00174 0.51548,-4.71317 -0.46412,-4.10776 -0.92357,0.5708 -2.04423,3.52481 -2.49035,6.56442 -0.97511,6.6439 1.24045,4.80153 2.95447,-2.45666 z m 19.90836,2.05458 c -1.16534,-1.88553 -6.12829,-1.88218 -6.12829,0 0,0.79893 0.97599,2.42863 2.16883,3.62155 1.68124,1.68128 2.47074,1.68025 3.51178,0 0.7386,-1.19508 0.94007,-2.82478 0.44768,-3.62141 z m -86.178485,-3.26428 c -0.06582,-1.79593 -0.631386,-1.48666 -1.66036,0.9079 -2.145033,4.99173 -2.145033,7.85865 0,4.53954 0.968098,-1.49811 1.715261,-3.94944 1.66036,-5.44744 z m 147.234425,5.44744 c 0,-0.99869 -0.86533,-1.81579 -1.92296,-1.81579 -1.05763,0 -1.41795,0.8171 -0.80073,1.81579 0.61722,0.99868 1.48256,1.81578 1.92296,1.81578 0.4404,0 0.80073,-0.8171 0.80073,-1.81578 z M 56.392032,980.58598 c 0.802724,-1.29881 0.498108,-1.60342 -0.800737,-0.8007 -1.465964,0.90601 -2.096335,-1.16137 -2.096335,-6.87545 0,-4.49408 -0.871475,-8.70964 -1.936606,-9.36794 -2.900257,-1.79246 -4.497745,0.7219 -2.027873,3.19179 1.181774,1.18176 2.148688,4.70894 2.148688,7.83813 0,7.32153 2.183101,10.10739 4.712863,6.01417 z m 16.501214,-1.87565 c -0.579641,-1.44853 -1.00991,-1.01827 -1.097041,1.09703 -0.07887,1.91414 0.350316,2.98662 0.953698,2.38318 0.603364,-0.60327 0.667878,-2.1695 0.143373,-3.48021 z m -10.052069,-5.36176 c -1.24393,-4.3226 -1.803266,-4.95307 -1.919304,-2.16341 -0.1837,4.41632 1.680262,10.25845 2.887763,9.05087 0.432899,-0.43287 -0.003,-3.53222 -0.968459,-6.88746 z m 26.356353,1.61667 c -0.503726,-1.24836 -0.915851,-0.22696 -0.915851,2.26974 0,2.49669 0.412125,3.51804 0.915851,2.2698 0.503717,-1.24843 0.503717,-3.29119 0,-4.53954 z m 170.68425,0 c -0.50371,-1.24836 -0.91586,-0.22696 -0.91586,2.26974 0,2.49669 0.41215,3.51804 0.91586,2.2698 0.50373,-1.24843 0.50373,-3.29119 0,-4.53954 z m -154.69147,-2.89377 c 0.40664,-2.11148 -0.0276,-4.31302 -0.96484,-4.89232 -0.93729,-0.57927 -1.70418,1.58249 -1.70418,4.80392 0,6.29703 1.464,6.34552 2.66902,0.0885 z m 63.25531,4.00236 c 1.93348,-1.93347 -0.48981,-4.19761 -3.32731,-3.10876 -1.4603,0.56038 -2.203,1.75035 -1.65047,2.64437 1.17699,1.90446 3.33629,2.10587 4.97778,0.46439 z M 49.287976,969.63135 c -0.579649,-1.44849 -1.009912,-1.01825 -1.097041,1.09707 -0.07883,1.91412 0.350317,2.98658 0.95369,2.38321 0.603368,-0.60338 0.667878,-2.16951 0.143359,-3.48028 z m 103.708514,-7.14574 c -0.6159,-5.98126 -0.65374,-5.94341 -1.53758,1.53758 -0.49837,4.21839 -0.21424,6.97788 0.63145,6.1322 0.84567,-0.84566 1.25343,-4.29707 0.90613,-7.66978 z m -4.54695,-1.49837 c 0.6684,-5.2251 0.44588,-7.14836 -0.63025,-5.44738 -1.43899,2.27458 -2.62046,-8.20018 -2.2101,-19.59456 0.0446,-1.23759 -0.64559,-1.80112 -1.53369,-1.25224 -0.88808,0.54885 -1.20438,4.21705 -0.70288,8.15151 2.6994,21.1775 2.76705,22.56958 0.9654,19.86408 -0.99755,-1.49802 -1.82624,-6.55671 -1.84154,-11.24152 -0.0153,-4.6848 -0.96656,-9.09799 -2.1139,-9.80711 -3.06923,-1.8969 -0.26643,16.85601 3.46286,23.1692 1.63449,2.76698 3.10661,4.85173 3.27137,4.63279 0.16476,-0.21895 0.76449,-4.03259 1.33273,-8.47477 z m -102.217745,5.35301 c 0,-0.99869 -0.360329,-1.81579 -0.800735,-1.81579 -0.440403,0 -1.30573,0.8171 -1.922951,1.81579 -0.617223,0.99868 -0.256891,1.81578 0.800733,1.81578 1.057622,0 1.922953,-0.8171 1.922953,-1.81578 z m 91.412085,-11.62381 c -1.2137,-3.6608 -1.31491,-3.63217 -2.57773,0.72906 -0.72293,2.49672 -1.39084,6.58225 -1.48425,9.07896 -0.16769,4.48312 -0.13567,4.47409 2.57774,-0.72907 1.61185,-3.09077 2.22535,-6.84357 1.48424,-9.07895 z m 184.3279,11.42463 c -3.23078,-2.04712 -9.31223,-2.06811 -8.05124,-0.0278 0.54005,0.87385 3.12686,1.58883 5.74839,1.58883 3.35893,0 4.03896,-0.46096 2.30285,-1.56102 z m -97.69276,-11.60346 c 0.12275,-5.73286 0.48424,-6.49801 1.71598,-3.63158 1.51776,3.53196 1.56406,3.52484 1.68817,-0.25968 0.13088,-3.99057 -2.9919,-6.09558 -9.04284,-6.09558 -2.35558,0 -3.087,0.88364 -2.34086,2.82804 0.59688,1.55542 2.07444,2.44842 3.28354,1.98447 1.48338,-0.56925 2.27288,1.61124 2.42762,6.70485 0.22534,7.41819 0.18449,7.47009 -2.3683,3.00895 -3.09593,-5.41037 -3.47175,-4.01295 -0.80622,2.99791 1.53714,4.04302 2.25581,4.5192 3.60377,2.38794 0.92605,-1.46418 1.75366,-5.93058 1.83914,-9.92532 z m -133.106417,4.24983 c 6.861973,-4.23037 7.64978,-6.11292 1.815787,-4.33903 -12.200684,3.70979 -16.800078,4.31651 -18.983673,2.5043 -3.741633,-3.10529 -0.818964,-5.15645 4.477827,-3.14263 4.368191,1.66079 5.402045,1.22429 9.766665,-4.12346 4.678975,-5.73289 5.025482,-5.85042 8.357851,-2.83466 4.09786,3.70849 6.21855,4.03441 5.70264,0.87643 -0.20395,-1.24835 0.57735,-4.56996 1.73618,-7.38138 3.16807,-7.68581 2.49418,-8.29909 -1.78169,-1.62144 -5.546671,8.66228 -5.926447,6.09917 -0.77675,-5.24223 2.86256,-6.30433 4.49364,-8.42254 4.56083,-5.92291 0.0575,2.1402 1.34037,4.36547 2.85074,4.94505 2.15341,0.82634 2.50284,0.0844 1.61894,-3.43731 -0.91766,-3.65631 -0.45216,-4.4911 2.50439,-4.4911 2.2616,0 4.02199,-1.5555 4.66646,-4.12332 0.56921,-2.26782 3.6146,-6.7619 6.76757,-9.98685 3.98092,-4.07177 4.8673,-5.86352 2.9007,-5.86352 -1.55758,0 -3.33697,0.81711 -3.95419,1.8158 -1.59895,2.58714 -4.62647,2.25075 -4.08553,-0.45395 0.5487,-2.7435 7.11938,-6.83185 9.05616,-5.63485 0.76155,0.47067 1.38463,-0.0104 1.38463,-1.0672 0,-1.05762 -2.80055,-1.92296 -6.22347,-1.92296 -4.56059,0 -7.22904,1.27836 -9.98684,4.78435 -2.06986,2.6314 -3.76338,4.11399 -3.76338,3.29467 0,-3.04819 8.02715,-9.89681 11.66521,-9.95255 3.67825,-0.0564 3.68542,-0.121 0.29778,-2.68459 -1.92677,-1.4581 -5.56231,-2.233 -8.17106,-1.74165 -3.35489,0.63188 -2.94223,0.20516 1.44202,-1.49109 l 6.14184,-2.37627 -5.23394,-4.565 c -2.87867,-2.51073 -8.50238,-10.90994 -12.49712,-18.66489 -7.938731,-15.41136 -18.392769,-28.9701 -21.063722,-27.31936 -0.931096,0.57545 -1.21455,1.82023 -0.629908,2.7662 0.584643,0.94597 1.814263,1.25562 2.732503,0.68811 0.923321,-0.57065 1.135113,0.36082 0.473862,2.08405 -0.786554,2.04972 -0.499968,2.6859 0.837586,1.85923 2.025798,-1.25202 6.954318,5.60625 5.252069,7.30851 -0.489076,0.48907 -1.414213,-0.76487 -2.055871,-2.78654 -0.714025,-2.2497 -2.187269,-3.28411 -3.797366,-2.66627 -1.446908,0.55522 -2.63073,0.11428 -2.63073,-0.97978 0,-2.35068 -5.667737,-9.29399 -7.586564,-9.29399 -0.732661,0 0.991249,4.69838 3.83091,10.4408 6.543224,13.23183 7.713421,16.79605 5.514455,16.79605 -0.967353,0 -1.758801,-1.48911 -1.758801,-3.30912 0,-3.18087 -7.633772,-18.09799 -14.103346,-27.55929 -2.967786,-4.34021 -2.961003,-4.42635 0.154719,-1.96239 2.668645,2.11041 3.158022,2.12993 2.702391,0.1078 -0.854599,-3.79263 5.639713,-4.29971 9.565538,-0.74689 1.923065,1.74035 3.496484,2.46326 3.496484,1.60646 0,-2.41225 14.1111,11.84413 20.754961,20.96866 3.27228,4.49409 8.23931,12.25659 11.03785,17.25002 4.15465,7.41316 4.39494,8.41264 1.30966,5.44736 -2.0782,-1.99738 -5.80817,-7.49498 -8.28879,-12.21694 -5.11706,-9.74045 -15.734731,-23.29047 -15.734731,-20.08026 0,1.16728 0.739666,2.57947 1.643684,3.1382 0.904028,0.5587 5.543097,7.7566 10.309047,15.99532 6.99496,12.09196 27.99465,38.14615 27.99465,34.73281 0,-0.47223 -3.26841,-6.81384 -7.26316,-14.09246 -3.99474,-7.27862 -7.26316,-13.95879 -7.26316,-14.84481 0,-2.53919 4.28053,4.33798 12.4975,20.07867 l 7.58305,14.52631 14.92682,4.84911 c 10.85863,3.52751 13.19477,4.76472 8.57159,4.53947 -9.41517,-0.45871 -8.61212,5.20662 1.50507,10.61799 4.32319,2.31235 8.89013,5.61258 10.14875,7.33388 2.14775,2.93716 2.37539,2.91855 3.70245,-0.30279 3.178,-7.71442 2.61081,-11.76587 -1.8866,-13.47578 -2.41488,-0.91815 -4.39072,-2.07248 -4.39072,-2.5652 0,-0.49273 1.22565,-0.42552 2.72368,0.14933 1.49803,0.57484 2.72369,0.23595 2.72369,-0.7531 0,-0.98906 -1.42994,-2.24039 -3.17764,-2.78074 -19.22669,-5.94452 -36.76974,-17.27229 -36.76974,-23.74272 0,-0.95775 -1.42992,-3.42587 -3.17762,-5.48465 -3.07772,-3.62555 -3.06676,-3.65859 0.34855,-1.05088 3.12393,2.38525 3.34526,2.3817 1.94027,-0.0313 -4.28686,-7.36242 -21.28691,-29.27166 -22.08978,-28.4688 -0.50428,0.50428 0.46805,3.03052 2.16074,5.61387 1.69269,2.58338 2.74812,4.69703 2.3454,4.69703 -1.53511,0 -14.58077,-16.66685 -14.93506,-19.0807 -0.50169,-3.41832 -6.687276,-10.09517 -8.382036,-9.04776 -0.746248,0.46122 -4.426372,-1.60081 -8.178068,-4.58229 -8.317281,-6.60973 -13.446929,-6.8305 -20.515218,-0.88292 -4.499601,3.78618 -5.570497,4.07542 -6.464344,1.74608 -0.693444,-1.80707 0.359076,-3.36711 2.983967,-4.42282 2.993394,-1.20391 3.245572,-1.66115 0.963081,-1.74608 -3.897792,-0.14513 -12.267624,3.59981 -12.568986,5.62373 -0.124782,0.83838 -0.329123,2.27334 -0.453947,3.1888 -0.124782,0.91546 -0.83981,2.27731 -1.588824,3.02631 -0.749012,0.74903 -1.361841,4.95086 -1.361841,9.33743 0,4.38659 -0.750618,7.5117 -1.668035,6.94469 -2.602905,-1.60867 -4.161476,8.80564 -2.758347,18.43121 2.119756,14.54169 5.749906,21.51712 13.156865,25.28127 9.233135,4.69215 17.992766,11.2519 19.189346,14.37012 0.827039,2.15522 0.386513,2.21976 -2.565946,0.3759 -1.960427,-1.22429 -3.564396,-2.75125 -3.564396,-3.39321 0,-0.64198 -1.634209,-1.59459 -3.631584,-2.11692 -1.997365,-0.52233 -3.631579,-0.20908 -3.631579,0.6961 0,0.9052 -0.726317,1.6458 -1.614032,1.6458 -0.887734,0 -1.500554,-1.34198 -1.361844,-2.98219 0.138726,-1.64021 -0.719865,-3.32606 -1.907944,-3.74636 -1.565271,-0.55373 -2.012826,2.64264 -1.625246,11.6072 0.402432,9.30799 1.926059,15.2939 6.153157,24.17401 l 5.618274,11.80263 -5.242796,-5.80455 c -5.569465,-6.16618 -8.932296,-15.55092 -9.306462,-25.97176 l -0.22818,-6.35526 -1.928238,8.06088 c -1.397073,5.84034 -1.373253,8.24588 0.08643,8.73246 1.225251,0.40841 1.651585,3.29761 1.088021,7.37333 -0.606559,4.3867 -0.345901,5.88313 0.754569,4.33192 1.220588,-1.7205 2.535804,-0.1322 4.79999,5.79645 7.719754,20.21388 17.850745,24.88191 33.31295,15.34955 z m -24.54575,-4.70378 c -4.711187,-6.80404 -6.814369,-11.2772 -3.20154,-6.80921 1.615077,1.99737 3.922717,3.63158 5.128081,3.63158 1.205366,0 2.204077,0.8171 2.219375,1.8158 0.01524,0.99867 0.676347,2.83715 1.469003,4.08552 2.935929,4.62378 -2.279033,2.0941 -5.614919,-2.72369 z M 174.61238,925.78759 c -0.51098,-1.33156 0.14075,-2.42104 1.4484,-2.42104 1.3076,0 1.95938,1.08948 1.4484,2.42104 -0.51097,1.33159 -1.16275,2.42107 -1.4484,2.42107 -0.28565,0 -0.93742,-1.08948 -1.4484,-2.42107 z m -64.82793,-4.84209 c 0,-0.99869 0.72181,-1.8158 1.60401,-1.8158 0.88221,0 2.07547,-1.8028 2.65166,-4.00623 0.57623,-2.20343 1.52839,-3.5255 2.11596,-2.93794 1.90736,1.9074 -1.24398,10.57575 -3.84479,10.57575 -1.38976,0 -2.52684,-0.8171 -2.52684,-1.81578 z M 98.329504,905.05788 c 0.94479,-13.31701 3.780986,-16.53966 3.280726,-3.72773 -0.51556,13.20387 -0.68317,14.16798 -2.463084,14.16798 -0.857081,0 -1.225033,-4.6981 -0.817642,-10.44025 z M 89.079998,898.392 c -1.595455,-3.81845 -2.830581,-9.90701 -2.744747,-13.5301 0.139308,-5.88183 0.30437,-6.09994 1.540487,-2.03624 0.76144,2.50317 2.764375,7.21976 4.450982,10.48129 2.117197,4.0942 2.538325,6.87391 1.360329,8.97888 -1.426324,2.54871 -2.182056,1.90997 -4.607051,-3.89383 z m -17.13382,-1.65705 c -3.226546,-3.32894 -4.816773,-6.04994 -3.533837,-6.04669 1.282936,0.003 4.13348,2.72698 6.334552,6.05265 5.016958,7.58034 4.551255,7.57936 -2.800715,-0.006 z m 4.158914,-4.9803 c -6.366785,-10.08564 -7.920216,-15.08458 -2.092867,-6.7349 5.786847,8.29167 8.976233,14.13625 7.714145,14.13625 -0.521959,0 -3.051529,-3.3306 -5.621278,-7.40135 z M 65.106108,881.72782 c -1.501413,-3.59341 -2.481108,-7.6276 -2.177074,-8.96488 0.30402,-1.33728 1.840936,1.60278 3.415386,6.53346 3.347607,10.48374 2.676637,11.80118 -1.238312,2.43142 z m 32.373329,-7.08497 c 0.118969,-2.99605 -0.433406,-7.49014 -1.227607,-9.98685 l -1.444017,-4.53947 3.606958,4.53947 c 4.660949,5.86598 6.578199,12.09085 4.180379,13.57279 -1.03931,0.64232 -1.94707,-0.3103 -2.01728,-2.11694 -0.11403,-2.93659 -0.29654,-2.89984 -1.721237,0.34678 -1.344628,3.0642 -1.559795,2.78051 -1.377196,-1.81578 z m -12.649258,-4.10843 c 0.168317,-2.23445 0.949254,-4.06262 1.735403,-4.06262 1.894769,0 1.765253,2.1045 -0.33383,5.42447 -1.342028,2.12258 -1.642087,1.83105 -1.401573,-1.36185 z M 45.93507,863.59054 c -0.364322,-4.58073 -0.03805,-8.71448 0.725055,-9.18611 0.763103,-0.4716 1.387459,3.27627 1.387459,8.32862 0,11.45867 -1.229671,11.9578 -2.112514,0.85749 z m 5.887446,0.006 c 0.08716,-2.11529 0.517396,-2.54555 1.097041,-1.09703 0.524534,1.31077 0.460021,2.87688 -0.143372,3.48025 -0.603382,0.60338 -1.032533,-0.46906 -0.953699,-2.38322 z m 18.216308,-8.22148 c -1.118652,-3.20899 -1.716164,-6.15227 -1.327776,-6.54066 0.388374,-0.38837 1.621398,1.91939 2.740056,5.12837 1.118657,3.20898 1.716155,6.15227 1.327781,6.54064 -0.388379,0.38838 -1.621418,-1.91937 -2.740061,-5.12835 z m -14.441367,-1.6136 c 0,-2.4967 0.412126,-3.51808 0.915853,-2.26974 0.503717,1.24836 0.503717,3.29113 0,4.5395 -0.503727,1.24834 -0.915853,0.22696 -0.915853,-2.26976 z m 7.330427,-6.35525 c 0.03705,-2.99606 0.44397,-4.00189 0.904355,-2.23519 0.460366,1.7667 0.430092,4.21803 -0.06726,5.44738 -0.497393,1.22934 -0.874076,-0.21614 -0.837064,-3.21219 z m 3.524873,-2.72369 c -0.163276,-1.49803 -0.805413,-4.76644 -1.426992,-7.26316 -0.872798,-3.50584 -0.628107,-4.07303 1.07464,-2.49092 1.212631,1.12668 1.854782,4.39511 1.426993,7.26316 -0.427783,2.86803 -0.911364,3.98895 -1.074641,2.49092 z m 31.356544,-7.71711 -3.459067,-4.08553 4.085527,3.45907 c 2.247049,1.90248 4.085529,3.74097 4.085529,4.08553 0,1.45308 -1.46134,0.38033 -4.711989,-3.45907 z M 45.618566,956.80698 c -0.503723,-1.24836 -0.915858,-0.22697 -0.915858,2.26974 0,2.49671 0.412135,3.51809 0.915858,2.26973 0.503723,-1.24835 0.503723,-3.29113 0,-4.53947 z m 64.165884,5.10058 c 0,-0.44039 -0.81711,-1.30571 -1.81579,-1.92295 -0.99869,-0.61722 -1.81578,-0.2569 -1.81578,0.80072 0,1.05763 0.81709,1.92297 1.81578,1.92297 0.99868,0 1.81579,-0.36033 1.81579,-0.80074 z m 49.21832,-0.76655 c 1.15099,1.81669 1.57558,1.38829 1.596,-1.61034 0.0153,-2.24705 -0.78931,-4.08554 -1.78799,-4.08554 -0.99869,0 -1.8158,-1.22565 -1.8158,-2.72368 0,-1.49802 0.81711,-2.72368 1.8158,-2.72368 0.99868,0 1.81578,-1.81603 1.81578,-4.03561 0,-3.97682 -0.0369,-3.98274 -2.5421,-0.40623 -1.39816,1.99614 -2.5163,6.87631 -2.48477,10.84481 0.0316,3.96848 0.4573,6.1016 0.94612,4.74027 0.75038,-2.08975 1.13299,-2.08975 2.45696,0 z M 42.068661,947.7492 c -0.434324,-2.25867 -0.80617,-0.83827 -0.826326,3.15646 -0.02017,3.99474 0.335204,5.84277 0.789681,4.10669 0.45448,-1.73605 0.470969,-5.00447 0.03666,-7.26315 z m 52.584202,1.18709 c 0,-3.29788 0.173849,-3.3722 -4.979536,2.12947 l -4.402041,4.69956 4.690778,-2.12945 c 2.57995,-1.17121 4.690799,-3.286 4.690799,-4.69958 z m 57.159457,-11.91382 -1.75297,-6.0905 -0.13902,7.26316 c -0.0764,3.99474 0.46271,9.30593 1.19808,11.80264 1.29435,4.3945 1.35477,4.35707 1.89193,-1.17267 0.30519,-3.14167 -0.23394,-8.45286 -1.19807,-11.80263 z m -94.376528,11.61345 c -0.898879,-1.7477 -2.088783,-4.40328 -2.644227,-5.90131 -0.555444,-1.49803 -1.074413,-0.0682 -1.153263,3.17763 -0.100948,4.15745 0.680388,5.90132 2.644228,5.90132 2.066895,0 2.365045,-0.82152 1.153262,-3.17764 z m -8.185646,-4.53947 c -0.503723,-1.24837 -0.915858,-0.22696 -0.915858,2.26974 0,2.49672 0.412135,3.51809 0.915858,2.26973 0.503723,-1.24835 0.503723,-3.29112 0,-4.53947 z m -2.509633,-13.16448 c 0.629388,-6.76808 0.44959,-9.1753 -0.474686,-6.35526 -1.469647,4.484 -2.463557,19.47132 -1.194138,18.00659 0.360627,-0.41613 1.111596,-5.65922 1.668824,-11.65133 z m 125.688697,2.72369 c 0.61722,-0.99869 0.25689,-1.81579 -0.80075,-1.81579 -1.05762,0 -1.92295,0.8171 -1.92295,1.81579 0,0.99868 0.36034,1.8158 0.80074,1.8158 0.44041,0 1.30572,-0.81712 1.92296,-1.8158 z m -39.87946,-1.7059 c -0.57987,-0.93824 0.39329,-1.61126 2.16256,-1.49558 1.7693,0.11566 6.28104,-0.37938 10.02609,-1.10008 6.47075,-1.24523 6.80922,-1.65993 6.80922,-8.34275 0,-3.8678 0.45416,-8.21588 1.00924,-9.66242 0.82978,-2.16238 -1.30823,-2.57431 -12.02334,-2.31656 -14.6133,0.35148 -18.04111,2.76788 -18.03531,12.71376 0.003,4.11528 1.29611,6.33451 4.99343,8.56589 6.10857,3.68656 6.37833,3.77392 5.05811,1.63774 z m -0.97581,-9.04034 c 0,-1.91568 -0.24719,-4.57128 -0.5493,-5.90132 -0.3021,-1.33003 0.26419,-0.57975 1.25842,1.6673 0.99425,2.24702 2.51531,4.08552 3.38013,4.08552 0.86484,0 1.06744,0.81711 0.45022,1.81579 -1.86716,3.02112 -4.53947,2.03962 -4.53947,-1.66729 z m 13.06451,-2.87218 c 0.037,-2.99606 0.44395,-4.00188 0.90434,-2.23518 0.46037,1.7667 0.43011,4.21802 -0.0673,5.44737 -0.4974,1.22934 -0.87408,-0.21614 -0.83706,-3.21219 z m 74.09339,8.88468 c 0,-0.3925 -1.22566,-0.71363 -2.72369,-0.71363 -1.49802,0 -2.72367,0.79148 -2.72367,1.7588 0,0.96734 1.22565,1.28848 2.72367,0.71362 1.49803,-0.57484 2.72369,-1.3663 2.72369,-1.75879 z M 44.077745,916.40603 c -0.04565,-2.99606 -0.45669,-4.01746 -0.913413,-2.26975 -0.456719,1.7477 -1.476028,3.17764 -2.265129,3.17764 -1.254587,0 -1.348392,4.27966 -0.218894,9.98684 0.68732,3.47291 3.479917,-5.48226 3.397436,-10.89473 z m 176.517015,5.91718 c 2.85962,-2.25577 5.24452,-4.61893 5.29978,-5.25146 0.16232,-1.8577 -7.38795,-3.33797 -17.16153,-3.36463 -5.00001,-0.0131 -11.91246,-0.83399 -15.36097,-1.82301 -8.14064,-2.33471 -11.09052,0.26509 -6.30314,5.55509 5.36797,5.93155 8.85332,7.17696 15.08425,5.38994 5.36712,-1.53927 5.56524,-1.42307 3.65592,2.14452 -1.89196,3.53518 -1.65445,3.69913 3.78382,2.61147 3.19142,-0.6383 8.14225,-3.00614 11.00187,-5.26192 z M 35.491157,915.3078 c -0.956834,-2.39203 -1.791494,-3.3946 -1.854798,-2.22792 -0.153759,2.83374 1.961473,8.21011 2.871918,7.29965 0.397422,-0.39742 -0.06029,-2.67969 -1.01712,-5.07173 z m 11.981028,-3.78172 c -0.579647,-1.4485 -1.009911,-1.01826 -1.09704,1.09704 -0.07884,1.91414 0.350317,2.9866 0.95369,2.38324 0.603369,-0.60339 0.667879,-2.16949 0.14336,-3.48028 z m -7.595656,-5.84141 c 0,-4.39873 -0.612829,-7.61891 -1.361843,-7.156 -2.469849,1.52646 -1.381263,15.15365 1.210528,15.15365 0.08322,0 0.151315,-3.59894 0.151315,-7.99765 z m -10.466527,-8.79839 c -0.139686,-2.24705 -0.70669,-4.49409 -1.259996,-4.99342 -0.553304,-0.49935 -0.504181,-4.17632 0.109168,-8.17106 l 1.115173,-7.26317 0.385294,7.26317 c 0.328882,6.19975 3.258331,16.91783 3.634004,13.29586 0.379749,-3.66128 -4.042547,-29.91178 -5.29887,-31.45377 -0.813673,-0.99867 -1.858096,-7.12696 -2.320944,-13.61842 -0.462845,-6.49144 -0.491457,-9.55558 -0.0636,-6.80921 0.427874,2.74638 1.874087,4.99342 3.213809,4.99342 3.406177,0 1.327836,-14.68791 -2.505108,-17.70395 -2.601823,-2.04728 -2.528606,-2.55047 0.747055,-5.13426 3.63158,-2.86453 3.63158,-2.86453 0,-2.26974 -4.770496,0.78134 -6.091527,8.29218 -4.287383,24.37637 4.031785,35.94387 4.062295,37.04738 1.024236,37.04738 -2.559216,0 -2.589233,0.55117 -0.271935,4.99343 1.432649,2.74637 2.609852,6.01479 2.616004,7.26316 0.0061,1.24834 0.77751,2.26973 1.714128,2.26973 0.936615,0 1.588646,-1.83849 1.448957,-4.08552 z m 7.178723,-8.17106 c -0.456721,-1.7477 -0.830402,-0.31776 -0.830402,3.17764 0,3.49539 0.373681,4.92531 0.830402,3.17762 0.45672,-1.7477 0.45672,-4.60756 0,-6.35526 z m 122.296505,-0.3494 c -5.39002,-7.56959 -6.535,-7.04662 -1.47438,0.67344 2.24444,3.42394 4.38385,5.9223 4.75424,5.55192 0.37039,-0.3704 -1.10556,-3.17182 -3.27986,-6.22536 z m 26.85364,-8.57778 c 1.66784,-1.2683 5.297,-2.33199 8.06479,-2.36376 3.78514,-0.0434 5.51001,-1.29531 6.95962,-5.05116 1.06,-2.7464 3.53877,-8.09334 5.5084,-11.88209 l 3.58112,-6.88867 -7.36313,0.43445 c -6.96877,0.41118 -10.77419,3.35604 -4.33677,3.35604 3.88682,0 2.58883,1.28494 -2.11842,2.0971 -1.99738,0.34462 -4.2319,1.44368 -4.96563,2.44237 -0.84669,1.15246 -1.34419,1.04872 -1.36185,-0.28395 -0.0163,-1.19805 -1.57855,-1.69421 -3.63895,-1.15541 -1.98615,0.51939 -3.19847,1.61209 -2.69407,2.42822 0.50441,0.81614 0.0866,1.99713 -0.92832,2.62441 -1.01497,0.6273 -1.84541,-0.36983 -1.84541,-2.21586 0,-2.4683 -1.32118,-3.33741 -4.99342,-3.28479 -2.74637,0.0394 -5.59373,0.88869 -6.32746,1.88738 -0.8035,1.09367 -1.34509,0.82472 -1.36184,-0.67628 -0.0223,-2.0091 -0.55567,-2.05398 -2.75148,-0.23162 -2.17299,1.80341 -2.72369,1.80341 -2.72369,0 0,-1.71215 -0.74522,-1.65597 -3.07226,0.23162 -1.68972,1.37063 -2.58714,1.67497 -1.99428,0.67628 0.60966,-1.02695 -1.21099,-1.89978 -4.19091,-2.00914 -2.89788,-0.10629 -5.26887,0.0501 -5.26887,0.34782 0,0.29765 4.89087,4.30462 10.8686,8.90437 5.97774,4.59977 13.08928,12.15248 15.8034,16.7838 l 4.93481,8.42062 1.59179,-6.14288 c 0.87547,-3.37857 2.95638,-7.18057 4.62423,-8.44887 z m -8.62683,-14.37546 c 0.0872,-2.11529 0.51738,-2.54555 1.09703,-1.09704 0.52453,1.31078 0.46003,2.8769 -0.14324,3.48027 -0.60336,0.60336 -1.03252,-0.46909 -0.95368,-2.38323 z M 42.036094,883.26785 c -0.456721,-1.74771 -0.830402,-0.31777 -0.830402,3.17763 0,3.4954 0.373681,4.92533 0.830402,3.17764 0.456721,-1.74771 0.456721,-4.60758 0,-6.35527 z M 189.6792,880.99812 c 0,-0.99869 -0.36031,-1.81579 -0.80072,-1.81579 -0.44041,0 -1.30573,0.8171 -1.92295,1.81579 -0.61724,0.99868 -0.25691,1.81578 0.80073,1.81578 1.05761,0 1.92294,-0.8171 1.92294,-1.81578 z m -39.94737,-5.44738 c -2.13338,-2.99605 -4.28001,-5.44736 -4.77029,-5.44736 -1.15381,0 0.95583,3.68331 4.42001,7.71711 4.3638,5.08133 4.58127,3.67215 0.35028,-2.26975 z M 21.25515,874.64285 c -0.477277,-2.49672 -1.495475,-4.53947 -2.262666,-4.53947 -0.767188,0 -1.939372,-4.3579 -2.604849,-9.68423 -0.828801,-6.63348 -2.02965,-9.6842 -3.811974,-9.6842 -1.652678,0 -2.012045,0.71769 -0.98498,1.96711 0.889367,1.0819 2.194828,5.84834 2.901026,10.59211 0.7062,4.74374 2.09575,8.62499 3.087889,8.62499 0.992137,0 1.364211,1.14579 0.826832,2.54616 -0.986087,2.56971 0.13155,4.71701 2.45514,4.71701 0.693748,0 0.87086,-2.04277 0.393582,-4.53948 z m 13.52444,-2.23518 c -0.460382,-1.76671 -0.867335,-0.76087 -0.90434,2.23518 -0.03702,2.99606 0.33967,4.44153 0.837057,3.21218 0.497388,-1.22934 0.527663,-3.68065 0.06728,-5.44736 z m 170.59986,3.56922 c 2.08931,-1.33884 6.91725,-16.5455 5.65407,-17.80869 -0.37063,-0.37064 -2.86677,3.79737 -5.54699,9.26223 -4.65898,9.49949 -4.6838,11.47924 -0.10709,8.54646 z M 37.816845,858.78249 c 1.337406,-0.86622 1.019634,-1.34379 -0.906171,-1.36184 -3.032315,-0.0285 -5.747307,6.07868 -3.645869,8.20101 0.640396,0.64674 1.463155,-0.32731 1.828354,-2.1646 0.365203,-1.83729 1.590862,-3.94085 2.723686,-4.67457 z m -7.564003,-5.38438 c -1.694736,-1.69475 -2.178947,-1.21052 -2.178947,2.17895 0,3.38948 0.484211,3.87368 2.178947,2.17894 1.694737,-1.69474 1.694737,-2.66316 0,-4.35789 z m 8.811821,-4.26759 c -0.879821,-2.94587 -1.669907,-3.99299 -1.755747,-2.32697 -0.174225,3.38152 1.763895,9.27459 2.73189,8.3066 0.342945,-0.34295 -0.09633,-3.03378 -0.976143,-5.97963 z m -20.627182,-3.95969 c -0.460383,-1.76671 -0.867336,-0.76088 -0.904341,2.23517 -0.03701,2.99605 0.339671,4.44153 0.837057,3.21219 0.497388,-1.22935 0.527664,-3.68067 0.06728,-5.44736 z m 158.531199,4.31156 c 0,-1.56881 -1.97627,-2.3929 -5.44322,-2.26974 -2.99378,0.1064 -5.4451,0.90623 -5.44738,1.77754 -0.003,0.87127 -1.2298,0.56696 -2.72783,-0.67629 -2.23071,-1.85133 -2.72369,-1.72725 -2.72369,0.68555 0,2.28105 1.84436,2.94602 8.17106,2.94602 5.6684,0 8.17106,-0.75438 8.17106,-2.46308 z m 16.34041,0.26691 c -9.9e-4,-1.47632 -2.68836,-2.44667 -7.26316,-2.6227 -9.78646,-0.37655 -9.78484,3.95997 9.8e-4,4.53742 4.94367,0.29171 7.26262,-0.31976 7.26146,-1.91472 z M 12.578725,834.24153 c -0.703281,-7.73981 -2.037671,-15.29803 -2.9653104,-16.79605 -1.2521658,-2.02212 -1.4142666,-1.71973 -0.6293066,1.17388 0.5815193,2.14368 1.232822,9.70191 1.44734,16.79607 0.214517,7.09415 1.073119,12.89847 1.908002,12.89847 0.834883,0 0.942557,-6.33257 0.239275,-14.07237 z m 33.039841,8.17105 c -0.503723,-1.24834 -0.915858,-0.22697 -0.915858,2.26974 0,2.49671 0.412135,3.51808 0.915858,2.26973 0.503723,-1.24836 0.503723,-3.29111 0,-4.53947 z m -4.722187,-24.36684 c -2.212843,-8.788 -11.898203,-26.17055 -15.845131,-28.43764 -2.157303,-1.23914 -2.209304,-2.01062 -0.291298,-4.32168 2.060427,-2.48268 1.592148,-2.65419 -3.984839,-1.45954 -6.690819,1.43322 -10.8591161,3.96822 -10.8591161,6.60407 0,0.8764 0.8754711,1.59345 1.9454891,1.59345 2.513918,0 7.13346,4.61954 7.13346,7.13347 0,1.07002 0.612829,1.84873 1.361843,1.73047 3.713576,-0.58636 5.989092,0.41978 4.907471,2.16988 -0.664493,1.07519 0.512941,3.55833 2.616522,5.5181 2.103582,1.95978 3.824695,5.16563 3.824695,7.12409 0,1.95847 0.832671,3.56085 1.850383,3.56085 1.072161,0 1.392231,2.10011 0.761027,4.99342 -0.838829,3.84504 -0.644383,4.36703 0.845497,2.26973 1.142484,-1.60826 1.946238,-1.85498 1.962658,-0.60244 0.01525,1.16665 0.513435,3.61798 1.106986,5.44737 0.897531,2.76627 0.74939,2.86768 -0.88009,0.60246 -1.0776,-1.49804 -1.971784,-1.88412 -1.987078,-0.85798 -0.01525,1.02615 1.402131,3.886 3.149828,6.35526 l 3.177633,4.48955 0.576418,-8.0868 c 0.317026,-4.44775 -0.300532,-11.5695 -1.372358,-15.82609 z m -20.598459,1.69443 c -0.417366,-2.76012 -0.770002,-0.93286 -0.783635,4.06056 -0.01365,4.99343 0.32785,7.2517 0.75885,5.01839 0.430999,-2.2333 0.442154,-6.31884 0.02478,-9.07895 z m 72.066522,6.08811 c -1.359792,-3.54359 -15.114913,-12.0144 -19.509284,-12.0144 -1.659948,0 -3.018087,0.90453 -3.018087,2.01007 0,1.10553 -1.02139,1.59248 -2.26974,1.0821 -1.24836,-0.51039 -3.699678,-1.50234 -5.44737,-2.20435 -2.194433,-0.88142 -3.17763,-0.42031 -3.17763,1.49029 0,1.52164 -1.02139,3.14055 -2.26974,3.59756 -1.248361,0.45699 3.368073,0.90427 10.258735,0.99395 10.058694,0.13089 13.817203,1.02781 19.065799,4.54958 7.245827,4.86193 8.067509,4.92584 6.367317,0.4952 z M 17.738014,810.83539 c -1.390322,-3.62311 -3.264615,-1.29285 -3.369043,4.18869 -0.07677,4.03001 0.164348,4.19735 2.145023,1.48861 1.227336,-1.67849 1.778146,-4.23326 1.22402,-5.6773 z m 47.559583,1.16271 c -3.470236,-1.49122 -3.476965,-1.56622 -0.151325,-1.68816 4.638489,-0.1701 2.089104,-2.52969 -3.548911,-3.28472 -5.228297,-0.70016 -6.374861,4.20902 -1.293187,5.53701 5.591295,1.46115 8.849827,1.09303 4.993423,-0.56413 z m 19.065792,-2.6891 c 0,-3.29085 1.223351,-4.81192 4.539475,-5.6442 4.875612,-1.2237 5.82796,-3.36658 2.429618,-5.46686 -2.571669,-1.58938 -8.784879,5.63775 -8.784879,10.21843 0,1.80351 -1.021389,3.69124 -2.26974,4.19495 -1.355929,0.54714 -0.990405,0.97358 0.907896,1.05922 2.210963,0.0998 3.17763,-1.22707 3.17763,-4.36154 z m 139.688201,-6.8438 c 0.0703,-0.749 -1.3023,-1.38784 -3.05002,-1.41959 -2.87521,-0.0522 -2.8422,-0.31146 0.34706,-2.72369 3.28316,-2.48325 3.03432,-2.65149 -3.63157,-2.45531 -3.93595,0.11592 -5.72633,0.58433 -3.97864,1.04106 1.74771,0.45671 3.17763,2.45292 3.17763,4.43599 0,1.98308 0.81711,3.1006 1.81579,2.48338 1.00015,-0.61812 1.87311,0.76109 1.94342,3.07047 0.12057,3.96089 0.2139,3.99192 1.68817,0.56112 0.8583,-1.99737 1.61798,-4.24441 1.68816,-4.99343 z M 11.516949,800.64942 c -0.197123,-7.08094 -0.318852,-7.26805 -1.476622,-2.26975 -0.6939817,2.99605 -0.9184384,6.46877 -0.49879,7.71711 1.44581,4.30094 2.189688,2.24963 1.975412,-5.44736 z m 183.193501,2.6102 c 0.39533,-1.18595 -0.575,-2.15627 -2.15624,-2.15627 -1.58124,0 -2.87501,1.29377 -2.87501,2.87502 0,3.20654 3.90897,2.64813 5.03125,-0.71875 z M 53.462013,802.05094 c 3.148467,-3.79366 -0.501478,-4.65342 -5.083244,-1.19741 -3.890534,2.93464 -3.918139,3.11196 -0.524288,3.36761 1.970361,0.14842 4.493758,-0.82818 5.607532,-2.1702 z m 6.388213,0.86821 c -0.617225,-0.99868 0.35594,-1.8283 2.162576,-1.8436 2.763778,-0.0234 2.85519,-0.2994 0.576285,-1.74019 -3.136257,-1.98279 -6.475468,0.47585 -4.652444,3.42558 0.670999,1.0857 1.628561,1.97399 2.127901,1.97399 0.499342,0 0.402902,-0.81709 -0.214318,-1.81578 z m -9.986851,-8.39338 c 0,-2.41281 -0.492973,-2.53689 -2.723686,-0.68557 -1.498027,1.24324 -2.723686,2.56895 -2.723686,2.94602 0,0.37706 1.225659,0.68556 2.723686,0.68556 1.498026,0 2.723686,-1.32571 2.723686,-2.94601 z m 143.935915,1.75496 c -1.22935,-0.49738 -3.68067,-0.52765 -5.44737,-0.0673 -1.7667,0.46038 -0.76087,0.86734 2.23518,0.90436 2.99606,0.037 4.44153,-0.33969 3.21219,-0.83707 z m 15.36183,0.094 c -0.60338,-0.60336 -2.1695,-0.66787 -3.48026,-0.14337 -1.44852,0.57964 -1.01826,1.00991 1.09704,1.09704 1.91414,0.079 2.9866,-0.35032 2.38322,-0.95368 z M 47.106366,788.33891 c -0.61511,-0.99527 -2.449948,-0.8088 -4.472881,0.45455 -4.473017,2.79343 -2.715006,5.63796 1.943574,3.14475 1.964732,-1.05149 3.102918,-2.67117 2.529307,-3.5993 z m 36.397619,2.02253 c -0.60726,-1.91333 -0.127542,-4.08234 1.066102,-4.82004 1.500129,-0.92713 1.695644,-0.55383 0.633187,1.20904 -1.293192,2.14575 -1.031472,2.13988 1.649969,-0.0371 3.457761,-2.80711 2.466222,-3.90431 -5.823336,-6.44385 -3.902424,-1.19552 -4.072632,-0.98408 -2.12991,2.64593 1.161294,2.16991 1.685881,5.05431 1.165738,6.40977 -0.784724,2.04501 0.556619,3.52347 3.966064,4.37156 0.316979,0.079 0.07946,-1.42211 -0.527814,-3.33541 z m 147.938395,1.29185 c 0,-0.79457 -2.85987,-1.44467 -6.35527,-1.44467 -3.4954,0 -6.35527,0.84269 -6.35527,1.87267 0,1.02998 2.85987,1.68007 6.35527,1.44468 3.4954,-0.23543 6.35527,-1.07813 6.35527,-1.87268 z m 33.03821,177.41064 c 0.037,-2.99605 0.44395,-4.0019 0.90433,-2.23517 0.46036,1.7667 0.43011,4.21801 -0.0674,5.44735 -0.49739,1.22934 -0.87407,-0.21613 -0.83706,-3.21218 z m 30.09781,-20.57691 c -3.65259,-4.043 -8.0093,-10.05531 -9.68158,-13.36068 -1.67227,-3.30539 -6.13482,-10.09532 -9.91674,-15.08874 -3.78193,-4.99342 -8.72805,-12.75592 -10.99137,-17.25 -2.26335,-4.49408 -6.9048,-12.05232 -10.31435,-16.79606 -5.09038,-7.08233 -7.19996,-8.62501 -11.79453,-8.62501 -7.41498,0 -5.38184,-1.7902 2.95015,-2.59764 4.36807,-0.42329 6.58609,0.11883 6.58609,1.60977 0,3.79478 6.76561,10.57787 7.85148,7.87175 0.51742,-1.28941 1.08672,0.51547 1.2651,4.01086 0.30448,5.96554 0.41933,6.07688 1.87306,1.81579 l 1.54868,-4.53948 -0.25258,4.53948 c -0.13887,2.49671 0.418,6.5498 1.23758,9.00687 1.9473,5.83803 27.53853,43.36213 33.20313,48.68536 2.41506,2.26953 4.09537,5.01342 3.734,6.09752 -0.36137,1.08409 -3.64554,-1.33681 -7.29812,-5.37979 z m 4.40219,-23.00205 c 0.037,-2.99605 0.44396,-4.00189 0.90434,-2.23518 0.46036,1.7667 0.43012,4.21802 -0.0674,5.44737 -0.49731,1.22935 -0.87398,-0.21613 -0.83696,-3.21219 z m 5.44738,-14.52632 c 0.037,-2.99605 0.44395,-4.00189 0.90434,-2.23517 0.46036,1.7667 0.43011,4.21801 -0.0674,5.44735 -0.4973,1.22935 -0.87397,-0.21612 -0.83695,-3.21218 z m 3.42094,-0.1513 c 0.0872,-2.11529 0.51739,-2.54557 1.09703,-1.09705 0.52453,1.31076 0.46003,2.87689 -0.14324,3.48026 -0.60337,0.60339 -1.03252,-0.46908 -0.95367,-2.38321 z m -75.33758,-4.01541 c 3.08463,-1.9771 7.28775,-5.72967 9.34029,-8.33902 4.91688,-6.2508 6.70094,-6.04923 3.37555,0.38139 -3.41345,6.60088 -6.18822,8.82518 -12.88705,10.33053 l -5.43722,1.22183 5.60843,-3.59473 z m -15.44397,0.89346 c 0.41614,-0.30226 3.20791,-1.98497 6.20397,-3.73934 l 5.44736,-3.1898 -4.28667,3.73936 c -2.35769,2.05663 -5.14948,3.73935 -6.20397,3.73935 -1.05451,0 -1.57679,-0.24732 -1.16069,-0.54957 z m 65.57113,-5.80571 c 0.0369,-2.99604 0.44394,-4.00188 0.90434,-2.23518 0.46036,1.76672 0.4301,4.21802 -0.0674,5.44738 -0.49729,1.22935 -0.87398,-0.21614 -0.83695,-3.2122 z m 14.45901,0.90791 c 0,-2.49671 0.41215,-3.51811 0.91588,-2.26974 0.50371,1.24835 0.50371,3.29111 0,4.53947 -0.50373,1.24836 -0.91588,0.22698 -0.91588,-2.26973 z m -60.20775,-4.53948 c 2.34554,-2.49672 4.67317,-4.53947 5.17252,-4.53947 0.49933,0 -1.01119,2.04275 -3.35674,4.53947 -2.34555,2.49672 -4.67316,4.53948 -5.17252,4.53948 -0.49933,0 1.01119,-2.04276 3.35674,-4.53948 z m 34.92127,-0.9079 c 0,-3.49539 0.37369,-4.92534 0.8304,-3.17763 0.45672,1.7477 0.45672,4.60756 0,6.35527 -0.45671,1.74769 -0.8304,0.31776 -0.8304,-3.17764 z m 3.497,-1.81579 c 0,-2.4967 0.41216,-3.5181 0.91588,-2.26974 0.50371,1.24836 0.50371,3.29112 0,4.53948 -0.50372,1.24835 -0.91588,0.22698 -0.91588,-2.26974 z m 25.42107,0 c 0,-2.4967 0.41215,-3.5181 0.91586,-2.26974 0.50371,1.24836 0.50371,3.29112 0,4.53948 -0.50371,1.24835 -0.91586,0.22698 -0.91586,-2.26974 z m -21.53206,-7.26316 c 0,-5.49276 0.34041,-7.7398 0.75644,-4.99342 0.41606,2.74637 0.41606,7.24046 0,9.98684 -0.41603,2.74638 -0.75644,0.49936 -0.75644,-4.99342 z m -4.88932,-1.05639 c -1.54384,-4.02317 -1.37262,-6.20676 0.48665,-6.20676 0.87384,0 1.58883,2.04276 1.58883,4.53946 0,5.2585 -0.53308,5.68673 -2.07548,1.6673 z m -11.71021,-6.20676 c 0,-2.49671 0.41215,-3.51811 0.91586,-2.26974 0.50372,1.24835 0.50372,3.29111 0,4.53947 -0.50371,1.24835 -0.91586,0.22698 -0.91586,-2.26973 z m 36.937,-1.81579 c 0.61722,-0.99869 1.93932,-1.8158 2.93801,-1.8158 0.99869,0 1.31078,0.81711 0.69356,1.8158 -0.61721,0.99868 -1.93931,1.81579 -2.93799,1.81579 -0.99869,0 -1.31081,-0.81711 -0.69358,-1.81579 z m -81.83228,-6.80921 c 0.25566,-1.74772 2.02184,-3.47688 3.92486,-3.84262 3.40255,-0.65393 3.40255,-0.60115 9.9e-4,3.17763 -4.19459,4.65973 -4.5182,4.71455 -3.92583,0.66499 z m 95.14587,-8.62721 c -0.50054,-0.50055 -9.82916,-2.15102 -20.73025,-3.66768 -12.70716,-1.76795 -20.54367,-3.72212 -21.83615,-5.44518 -1.32232,-1.76282 -5.22721,-2.68758 -11.3487,-2.68758 -7.24223,0 -9.33271,-0.63408 -9.33271,-2.83084 0,-1.55696 -0.81711,-2.32585 -1.8158,-1.70863 -1.0142,0.62681 -1.79445,-0.72863 -1.76746,-3.07047 0.047,-4.07588 0.1345,-4.05359 3.14426,0.80073 2.68075,4.32378 4.26466,4.99342 11.81129,4.99342 6.07195,0 9.03238,-0.8261 9.76054,-2.72368 1.70381,-4.44004 3.85656,-3.09993 2.91686,1.81578 -0.48005,2.51122 -0.0163,4.53948 1.03907,4.53948 1.04879,0 2.16543,-2.24704 2.48144,-4.99341 0.40263,-3.4993 1.4878,-4.8424 3.62666,-4.48871 2.11374,0.34954 3.2862,-1.04612 3.81346,-4.53945 0.71054,-4.70767 0.77949,-4.64622 1.03342,0.92099 0.24513,5.37477 0.63149,5.77283 3.90363,4.02164 1.99738,-1.06895 3.64409,-1.30198 3.65938,-0.51783 0.0153,0.78414 0.81989,0.20006 1.788,-1.29796 0.9681,-1.49804 1.7727,-1.86786 1.78798,-0.82185 0.0163,1.17632 4.7036,1.7437 12.28438,1.48723 l 12.25659,-0.4146 -15.43422,2.23922 -15.43421,2.23924 13.61843,2.04047 c 9.03964,1.35442 10.81532,1.93302 5.28131,1.7209 -7.27037,-0.27867 -8.22558,0.10663 -7.4652,3.01157 0.61661,2.35571 1.27272,2.68265 2.24063,1.11652 0.97055,-1.57035 1.97229,-1.08678 3.44355,1.66229 1.21256,2.26572 3.7462,3.81734 6.09649,3.73356 2.21188,-0.0788 3.00027,-0.5555 1.7519,-1.05921 -3.14407,-1.26867 -2.84835,-3.63954 0.45395,-3.63954 1.49803,0 2.75086,0.88518 2.78409,1.96708 0.0333,1.08191 1.48338,0.2654 3.22255,-1.81445 1.73921,-2.07985 6.00181,-4.2407 9.4725,-4.80185 6.04832,-0.9779 6.3199,-0.78317 6.54059,4.68948 0.12653,3.14034 -0.69046,6.31005 -1.81578,7.04378 -2.29177,1.49424 -21.81478,1.89723 -23.23247,0.47954 z m -21.66672,-10.67316 c 1.65771,-1.99742 1.15142,-2.68153 -2.50134,-3.37978 -5.07749,-0.97063 -5.02369,-1.0172 -3.47757,3.0119 1.3563,3.53447 3.25398,3.65123 5.97891,0.36788 z m 7.44523,-1.3416 c 0,-0.99868 -0.8171,-1.3108 -1.81579,-0.69358 -0.99868,0.61724 -1.81578,1.93932 -1.81578,2.93801 0,0.99869 0.8171,1.3108 1.81578,0.69358 0.99869,-0.61722 1.81579,-1.93932 1.81579,-2.93801 z m -54.47369,0.21432 c -2.32765,-1.50424 -2.26167,-1.76421 0.45394,-1.78798 1.74771,-0.0153 3.17763,0.7893 3.17763,1.78798 0,2.21456 -0.2048,2.21456 -3.63157,0 z m 20.9868,-11.70826 c 0.36035,-4.66688 -9.8e-4,-6.2695 -1.03893,-4.59205 -0.8759,1.41719 -2.24976,1.89173 -3.0531,1.05451 -0.8033,-0.83723 -0.0937,-2.40382 1.57691,-3.48131 2.83946,-1.83134 2.83946,-2.10621 0,-4.21591 -2.53967,-1.88699 -2.66548,-2.86609 -0.76772,-5.97439 1.24834,-2.04463 2.39215,-6.79276 2.5418,-10.55138 0.22842,-5.73777 0.39586,-6.00716 1.04401,-1.67955 0.72885,4.86636 0.92152,4.9678 3.44888,1.81579 2.41548,-3.0125 2.55499,-2.45193 1.42867,5.74044 -0.68652,4.99342 -1.19338,11.73454 -1.12632,14.98027 0.067,3.24574 -0.58286,5.90131 -1.44421,5.90131 -0.86137,0 -1.92551,1.8385 -2.36482,4.08553 -0.43931,2.24703 -0.54963,0.85958 -0.24517,-3.08326 z m -131.74999,5.56478 c 0,-0.38287 1.63421,-1.12349 3.63158,-1.64579 1.99737,-0.52232 3.63159,-0.20908 3.63159,0.69611 0,0.90518 -1.63422,1.64579 -3.63159,1.64579 -1.99737,0 -3.63158,-0.31326 -3.63158,-0.69611 z m 119.98549,-2.17889 c 0.0872,-2.11528 0.51738,-2.54555 1.09703,-1.09703 0.52453,1.31077 0.46004,2.87688 -0.14323,3.48026 -0.60337,0.60337 -1.03253,-0.46909 -0.95367,-2.38323 z m -129.85452,-7.12247 c -0.65684,-3.50126 -0.36408,-7.79105 0.6506,-9.5329 1.42048,-2.43851 1.85754,-0.97417 1.90005,6.3659 0.064,11.05862 -0.8559,12.20085 -2.55065,3.167 z m 110.08081,-9.52226 c 0.26635,-12.32527 0.49025,-13.54683 0.99852,-5.44738 0.47748,7.60928 1.36925,10.44081 3.28823,10.44081 1.44821,0 2.63307,1.22565 2.63307,2.72367 0,3.30129 -2.91566,3.60236 -4.39649,0.45394 -0.58718,-1.24835 -0.76857,-0.0227 -0.40313,2.72369 0.36545,2.74639 -0.0394,4.99343 -0.89954,4.99343 -0.8602,0 -1.40949,-7.14967 -1.22066,-15.88816 z m 23.46727,11.34868 c -0.40384,-4.77618 -0.65286,-4.9999 -2.02113,-1.81579 -1.48903,3.46518 -1.56639,3.44438 -1.68815,-0.45394 -0.0702,-2.24705 0.68947,-4.08552 1.68815,-4.08552 1.08167,0 1.80454,-6.79069 1.78799,-16.79606 -0.019,-11.51499 -0.58124,-15.93967 -1.78799,-14.07239 -0.9681,1.49803 -1.7727,1.8762 -1.78798,0.84036 -0.0146,-1.03582 -1.66201,-2.00642 -3.65938,-2.15689 -3.07146,-0.23136 -3.63158,0.8458 -3.63158,6.98393 0,4.37593 0.72094,6.81189 1.81578,6.13523 0.99869,-0.61722 1.8158,-0.32497 1.8158,0.64944 0,0.97439 -0.74171,2.044 -1.64826,2.3769 -1.49043,0.54729 -2.66594,7.98687 -2.17573,13.76972 0.3257,3.84223 3.52529,2.50918 4.35832,-1.81578 0.73571,-3.81981 0.79923,-3.79028 0.97641,0.45394 0.10432,2.49671 -1.01012,6.12559 -2.47638,8.06418 -2.639,3.48904 -2.66778,3.48904 -2.84695,0 -0.14191,-2.76458 -0.47761,-2.54573 -1.5564,1.01477 -0.95548,3.1535 -1.5932,-0.0889 -2.08874,-10.61983 -0.39233,-8.33762 -0.10061,-15.53552 0.64851,-15.99533 0.74902,-0.4598 1.34933,-3.44338 1.33404,-6.63015 -0.0212,-4.40889 -0.44865,-5.14299 -1.78798,-3.07049 -1.27904,1.97916 -1.76778,2.07396 -1.78799,0.34678 -0.0153,-1.30728 -0.84491,-1.87189 -1.8436,-1.25467 -0.99869,0.61723 -1.81578,0.30622 -1.81578,-0.69112 0,-0.99733 3.06415,-2.13386 6.8092,-2.5256 l 6.80922,-0.71227 -6.80922,-0.30524 c -3.74505,-0.16788 -6.8092,-0.99712 -6.8092,-1.84274 0,-0.84563 2.85987,-1.34588 6.35526,-1.11167 4.53095,0.3036 6.35527,-0.32829 6.35527,-2.20123 0,-1.44491 -0.81711,-2.1221 -1.8158,-1.50487 -0.99868,0.61722 -1.81578,0.35219 -1.81578,-0.58896 0,-0.94113 1.63033,-2.13749 3.62294,-2.65858 3.05225,-0.79819 3.45332,-0.27162 2.54615,3.34283 -1.00131,3.98957 -0.61893,4.2459 5.45602,3.65717 3.59302,-0.34818 6.53279,0.0456 6.53279,0.87526 0,0.82958 -3.06414,1.82885 -6.80923,2.22059 -5.02967,0.52612 -3.96197,0.82213 4.08554,1.13261 8.5629,0.33037 10.01988,0.77198 6.80719,2.06326 -2.24817,0.90361 -5.31229,1.17296 -6.80921,0.59854 -1.90213,-0.72991 -2.72166,0.13988 -2.72166,2.88862 0,2.16315 0.64748,3.53283 1.43885,3.04373 0.79137,-0.48909 1.55903,0.706 1.70589,2.65578 0.1469,1.94976 -0.5006,3.07059 -1.43885,2.49073 -0.93824,-0.57987 -1.70589,-0.18899 -1.70589,0.86863 0,1.05764 0.8171,1.92295 1.81578,1.92295 0.99869,0 1.72102,1.8385 1.60517,4.08553 -0.19608,3.80299 -0.28981,3.83439 -1.35527,0.45395 -0.63759,-2.02282 -1.60333,2.80343 -2.18007,10.89474 -0.5695,7.98947 -1.24273,12.07501 -1.49607,9.07895 z m -89.17905,-1.47673 c 0,-3.04817 1.1534,-4.18191 4.53949,-4.46216 3.0487,-0.2523 4.53947,0.54729 4.53947,2.43482 0,1.54577 -0.8171,2.30551 -1.8158,1.68828 -0.99869,-0.61723 -1.81578,-0.34431 -1.81578,0.60647 0,0.95078 -1.22566,2.19901 -2.72369,2.77386 -1.92382,0.73824 -2.72369,-0.15489 -2.72369,-3.04127 z m 28.03187,-5.44927 c -1.61639,-3.4824 -1.40166,-4.19491 1.3261,-4.40037 1.79011,-0.13482 3.72762,0.51994 4.30556,1.45507 0.57796,0.93515 0.24539,1.70025 -0.73899,1.70025 -0.98441,0 -2.05402,1.21506 -2.37693,2.70013 -0.41374,1.90295 -1.15648,1.47336 -2.51574,-1.45508 z m -8.96606,-3.06085 c -0.61724,-0.99868 -0.25691,-1.81579 0.80073,-1.81579 1.05761,0 1.92294,0.81711 1.92294,1.81579 0,0.99869 -0.36031,1.8158 -0.80072,1.8158 -0.44041,0 -1.30573,-0.81711 -1.92295,-1.8158 z m -75.06194,-4.18233 c -1.65432,-1.99582 -1.99631,-4.84018 -1.07103,-8.90776 l 1.35932,-5.9757 1.62348,6.08114 c 0.89292,3.34463 1.37488,7.35312 1.07103,8.90778 -0.49334,2.52412 -0.81256,2.51282 -2.9828,-0.10548 z m 9.20686,-3.08082 c 0,-3.49541 0.37369,-4.92533 0.83042,-3.17764 0.45672,1.74771 0.45672,4.60758 0,6.35527 -0.45673,1.74771 -0.83042,0.31776 -0.83042,-3.17763 z m 56.54785,2.78359 c -0.56219,-1.46508 -0.67177,-3.71213 -0.24348,-4.99343 0.42829,-1.2813 1.20916,-0.0827 1.73526,2.66378 1.02728,5.36243 0.17977,6.68581 -1.49178,2.32965 z m 75.87024,-0.96781 c 0,-2.4967 0.41216,-3.51807 0.91588,-2.26973 0.50372,1.24836 0.50372,3.29112 0,4.53947 -0.50372,1.24836 -0.91588,0.22698 -0.91588,-2.26974 z m 27.23685,0 c 0,-2.4967 0.41216,-3.51807 0.91589,-2.26973 0.50371,1.24836 0.50371,3.29112 0,4.53947 -0.50373,1.24836 -0.91589,0.22698 -0.91589,-2.26974 z m -95.61566,-1.81578 c -0.68172,-2.14789 -0.83092,-4.31382 -0.33158,-4.81315 0.49934,-0.49936 1.46564,0.84946 2.14738,2.99736 0.68172,2.14789 0.83091,4.3138 0.33157,4.81315 -0.49934,0.49933 -1.46565,-0.84948 -2.14737,-2.99736 z m -82.61844,0.10721 c 0,-0.93972 0.81711,-2.21361 1.81578,-2.83083 0.99869,-0.61722 1.81581,0.15165 1.81581,1.70863 0,1.55695 -0.81712,2.83084 -1.81581,2.83084 -0.99867,0 -1.81578,-0.76888 -1.81578,-1.70864 z m 151.06456,-8.27823 c 0.037,-2.99605 0.44395,-4.00188 0.90433,-2.23518 0.46038,1.76671 0.43012,4.21802 -0.0674,5.44738 -0.4973,1.22934 -0.87397,-0.21614 -0.83696,-3.2122 z m -146.31929,-3.45808 c -1.49198,-5.94454 -1.00983,-7.03709 1.77074,-4.01244 1.08709,1.18251 1.42374,3.72591 0.74813,5.65198 -1.0672,3.0423 -1.39782,2.82709 -2.51887,-1.63954 z m 11.62465,2.09625 c -0.0188,-2.13487 1.3129,-3.1306 4.05772,-3.03428 2.72993,0.0958 3.1818,0.48737 1.36184,1.18016 -1.49803,0.57025 -3.324,1.93566 -4.05773,3.03428 -0.82284,1.23208 -1.34467,0.77986 -1.36183,-1.18016 z m 55.05221,-2.4008 c -1.1436,-2.42328 -1.42648,-4.80943 -0.62862,-5.30255 0.7979,-0.49311 1.98619,1.23698 2.64064,3.84464 1.5685,6.24938 0.58537,6.96174 -2.01202,1.45791 z m 62.42867,-2.04686 c 0.74722,-1.94724 1.45339,-2.27806 1.91387,-0.8966 0.40137,1.2041 1.47708,1.72739 2.39045,1.16288 0.91338,-0.56451 1.66071,-0.16104 1.66071,0.89658 0,1.05763 -1.60857,1.92295 -3.5746,1.92295 -2.61785,0 -3.25766,-0.8259 -2.39043,-3.08581 z m -113.87711,-2.48707 c 0,-0.79072 1.8385,-1.79181 4.08554,-2.2246 2.24703,-0.4328 -1.15758,-0.89817 -7.5658,-1.03419 -14.46394,-0.30697 -13.46343,-2.1619 1.48898,-2.76055 9.37624,-0.3754 11.07024,0.0285 11.07024,2.63914 0,1.84592 -1.82095,3.43045 -4.53947,3.95012 -2.49672,0.47728 -4.53949,0.22083 -4.53949,-0.56992 z m 11.59554,-4.81213 c 1.79423,-1.79423 12.00974,-1.90342 12.00974,-0.12841 0,0.78894 -2.99606,1.43442 -6.65789,1.43442 -3.66186,0 -6.07018,-0.58772 -5.35185,-1.30606 z m 13.82552,-0.86557 c 0,-1.69614 10.33914,-0.805 12.19527,1.05111 0.7074,0.70741 -1.74713,1.08193 -5.45454,0.83224 -3.70741,-0.24968 -6.74073,-1.09719 -6.74073,-1.88335 z m -45.39475,-4.84198 c 0,-1.59335 38.04519,-0.94121 39.66634,0.67995 0.48748,0.48745 -8.23804,0.88629 -19.39002,0.88629 -11.15197,0 -20.27632,-0.70479 -20.27632,-1.56624 z m 42.14565,0.5785 c 1.96675,-1.96673 10.51226,-2.66874 10.51226,-0.86355 0,1.0182 -2.5875,1.85129 -5.75001,1.85129 -3.1625,0 -5.30551,-0.44448 -4.76225,-0.98774 z m -44.682366,-6.57795 c 0.514396,-0.83228 4.700196,-1.51326 9.301786,-1.51326 4.60158,0 7.75401,0.61283 7.0054,1.36184 -1.88017,1.88117 -17.465678,2.0259 -16.307186,0.15142 z m 18.878826,0.56764 c 0,-1.50676 6.99008,-2.54419 17.25001,-2.56014 11.91429,-0.0184 19.06579,0.93674 19.06579,2.54669 0,0.83315 -8.17106,1.467 -18.1579,1.40856 -9.98683,-0.0584 -18.1579,-0.68625 -18.1579,-1.39511 z m 69.00001,0.0375 c 0,-0.83224 1.22567,-1.51316 2.72369,-1.51316 1.49803,0 2.72368,0.68092 2.72368,1.51316 0,0.83225 -1.22565,1.51318 -2.72368,1.51318 -1.49802,0 -2.72369,-0.68093 -2.72369,-1.51318 z m 49.02634,-0.30259 c 0,-0.99869 1.68244,-1.81581 3.73875,-1.81581 2.0563,0 3.23373,0.81712 2.61651,1.81581 -0.61722,0.99866 -2.29966,1.81578 -3.73874,1.81578 -1.43909,0 -2.61652,-0.81712 -2.61652,-1.81578 z M 48.880814,784.64045 c -0.658283,-1.06513 -0.807451,-2.32602 -0.331481,-2.80201 0.475972,-0.47595 1.349252,0.3955 1.940625,1.9366 1.227806,3.19963 0.181318,3.76243 -1.609144,0.86541 z m 176.599496,0.57474 c -0.40097,-0.749 -0.12202,-3.4046 0.61973,-5.90132 1.26071,-4.24307 1.36058,-4.15415 1.52976,1.36185 0.1745,5.6924 -0.62658,7.38435 -2.14949,4.53947 z m -81.19586,-5.09345 c 0,-3.11503 0.76866,-4.0305 2.74681,-3.27141 1.51075,0.57973 3.85087,0.13771 5.20028,-0.98215 1.9391,-1.60931 2.41011,-1.20325 2.24661,1.93678 -0.14134,2.714 -1.78918,4.39592 -5.20028,5.3076 -4.4234,1.18227 -4.99342,0.84086 -4.99342,-2.99082 z m 16.34211,1.69672 c 0,-1.27063 1.49984,-1.77239 3.63159,-1.21491 1.99737,0.52233 3.63157,1.49639 3.63157,2.16459 0,0.6682 -1.6342,1.21492 -3.63157,1.21492 -1.99738,0 -3.63159,-0.97406 -3.63159,-2.1646 z m -32.62662,-4.16906 c 0.81039,-2.57992 1.88157,-5.91644 2.38037,-7.41447 0.4988,-1.49803 0.97142,0.61283 1.05027,4.6908 0.10038,5.18777 -0.61456,7.41447 -2.38038,7.41447 -1.88341,0 -2.14988,-1.19016 -1.05026,-4.6908 z m 12.65295,3.65026 c 0,-0.90518 -1.63422,-1.21842 -3.63159,-0.69611 -2.74779,0.71855 -3.63158,0.0557 -3.63158,-2.72369 0,-2.73119 0.89617,-3.43901 3.49401,-2.75966 2.73793,0.71599 3.66136,-0.20487 4.2674,-4.25551 0.50946,-3.40505 0.86627,-2.22564 1.04548,3.45576 0.14964,4.74377 -0.13655,8.62501 -0.63584,8.62501 -0.49934,0 -0.90788,-0.74062 -0.90788,-1.6458 z m -23.46193,-3.04498 c 0.0871,-2.1153 0.51739,-2.54557 1.09704,-1.09705 0.52452,1.31077 0.46002,2.8769 -0.14337,3.48027 -0.60339,0.60338 -1.03255,-0.46909 -0.9537,-2.38322 z m 88.83036,-0.7566 c 0,-0.99868 0.86532,-1.81578 1.92296,-1.81578 1.05762,0 1.41795,0.8171 0.80073,1.81578 -0.61724,0.99869 -1.48257,1.81579 -1.92296,1.81579 -0.4404,0 -0.80073,-0.8171 -0.80073,-1.81579 z m -92.46194,-2.87498 c 0.0871,-2.1153 0.5174,-2.54556 1.09704,-1.09704 0.52453,1.31076 0.46002,2.87688 -0.14338,3.48025 -0.60338,0.60338 -1.03254,-0.46907 -0.95369,-2.38321 z m 61.5935,-2.57239 c 0,-0.99868 0.81711,-1.81578 1.8158,-1.81578 0.99868,0 1.81579,0.8171 1.81579,1.81578 0,0.99869 -0.81711,1.8158 -1.81579,1.8158 -0.99869,0 -1.8158,-0.81711 -1.8158,-1.8158 z M 54.402856,761.15598 c 0.61722,-0.99869 1.939319,-1.81579 2.938006,-1.81579 0.998683,0 1.310797,0.8171 0.693572,1.81579 -0.617225,0.99869 -1.939337,1.81578 -2.93802,1.81578 -0.998683,0 -1.310782,-0.81709 -0.693558,-1.81578 z"
       id="path4867"
       inkscape:connector-curvature="0" />
  </g>
</svg>
